<?xml version="1.0" encoding="UTF-8"?>
<svg width="981px" height="281px" viewBox="0 0 981 281" version="1.1" xmlns="http://www.w3.org/2000/svg" xmlns:xlink="http://www.w3.org/1999/xlink">
    <title>Long_wite@3x</title>
    <defs>
        <polygon id="path-1" points="0 0 167.353 0 167.353 91.431 0 91.431"></polygon>
        <polygon id="path-3" points="0 0 177.545 0 177.545 91.027 0 91.027"></polygon>
        <polygon id="path-5" points="0 -2.84217094e-14 980.391 -2.84217094e-14 980.391 210.823 0 210.823"></polygon>
        <polygon id="path-7" points="1.42108547e-14 0 72.5982109 0 72.5982109 123.476107 1.42108547e-14 123.476107"></polygon>
    </defs>
    <g id="Long_wite" stroke="none" stroke-width="1" fill="none" fill-rule="evenodd">
        <g id="Malmostad_logo2013_liggande_inv">
            <g id="Group-4" transform="translate(298.232000, 189.006000)">
                <mask id="mask-2" fill="white">
                    <use xlink:href="#path-1"></use>
                </mask>
                <g id="Clip-2"></g>
                <path d="M78.208,53.291 C77.663,41.667 77.072,27.689 77.133,15.425 L76.766,15.425 C73.795,26.457 70.028,38.607 66.146,49.999 L52.931,88.955 L40.276,88.955 L28.343,50.529 C24.815,38.979 21.597,26.738 19.235,15.425 L18.944,15.425 C18.554,27.202 18.013,41.593 17.326,53.838 L15.325,90.028 L0,90.028 L5.982,0 L27.595,0 L39.32,36.147 C42.555,46.786 45.442,57.463 47.599,67.507 L47.993,67.507 C50.414,57.665 53.504,46.667 56.992,36.08 L69.479,0 L90.811,0 L95.979,90.028 L79.95,90.028 L78.208,53.291" id="Fill-1" fill="#FFFFFE" mask="url(#mask-2)"></path>
                <path d="M166.342,50.94 C166.342,36.681 160.392,23.529 139.535,23.529 C129.298,23.529 120.879,26.314 115.963,29.299 L119.229,39.959 C123.66,37.175 130.336,35.114 136.707,35.114 C148.216,35.075 149.911,42.175 149.911,46.444 L149.911,47.53 C125.958,47.438 111.339,55.735 111.339,72.148 C111.339,82.06 118.646,91.491 131.842,91.491 C140.257,91.491 147.061,87.913 151.001,82.778 L151.399,82.778 L152.52,90.028 L167.353,90.028 C166.635,85.995 166.342,80.27 166.342,74.359 L166.342,50.94 Z M150.349,67.157 C150.349,68.29 150.244,69.596 149.884,70.729 C148.309,75.493 143.584,79.727 137.021,79.727 C131.824,79.727 127.652,76.741 127.652,70.362 C127.652,60.467 138.747,58.015 150.349,58.173 L150.349,67.157 L150.349,67.157 Z" id="Fill-3" fill="#FFFFFE" mask="url(#mask-2)"></path>
            </g>
            <polygon id="Fill-5" fill="#FFFFFE" points="485.322 279.034 501.774 279.034 501.774 184.2 485.322 184.2"></polygon>
            <g id="Group-9" transform="translate(522.309000, 189.410000)">
                <mask id="mask-4" fill="white">
                    <use xlink:href="#path-3"></use>
                </mask>
                <g id="Clip-7"></g>
                <path d="M0.533,43.921 C0.533,36.421 0.293,30.226 0,24.591 L14.045,24.591 L14.793,34.145 L15.178,34.145 C18.317,29.096 24.229,23.125 35.199,23.125 C43.811,23.125 50.436,27.919 53.236,35.108 L53.504,35.108 C55.776,31.552 58.518,28.83 61.451,26.943 C65.158,24.452 69.252,23.125 74.668,23.125 C85.416,23.125 96.369,30.475 96.369,51.334 L96.369,89.624 L80.338,89.624 L80.338,53.649 C80.338,42.813 76.582,36.456 68.735,36.456 C63.113,36.456 58.99,40.418 57.305,45.107 C56.783,46.679 56.469,48.755 56.469,50.592 L56.469,89.624 L40.436,89.624 L40.436,52.025 C40.436,42.862 36.772,36.456 29.215,36.456 C23.049,36.456 18.93,41.281 17.385,45.742 C16.799,47.393 16.567,49.341 16.567,51.179 L16.567,89.624 L0.533,89.624 L0.533,43.921" id="Fill-6" fill="#FFFFFE" mask="url(#mask-4)"></path>
                <path d="M144.276,91.087 C160.772,91.087 177.545,80.373 177.545,56.468 C177.545,36.762 164.6,23.125 145.246,23.125 C125.656,23.125 111.602,36.256 111.602,57.581 C111.602,78.424 125.799,91.087 144.139,91.087 L144.276,91.087 Z M157.625,16.049 C162.252,16.049 165.447,12.372 165.447,8.034 C165.447,3.445 162.143,0 157.668,0 C153.084,0 149.688,3.51 149.688,8.034 C149.688,12.372 152.94,16.049 157.488,16.049 L157.625,16.049 Z M131.701,16.049 C136.215,16.049 139.416,12.372 139.416,8.034 C139.416,3.445 136.111,0 131.744,0 C127.166,0 123.647,3.51 123.647,8.034 C123.647,12.372 127.016,16.049 131.57,16.049 L131.701,16.049 Z M144.406,79.131 C134.613,79.131 128.365,69.691 128.365,57.161 C128.365,46.329 133.104,35.059 144.639,35.059 C155.992,35.059 160.51,46.736 160.51,56.946 C160.51,70.027 153.959,79.131 144.533,79.131 L144.406,79.131 L144.406,79.131 Z" id="Fill-8" fill="#FFFFFE" mask="url(#mask-4)"></path>
            </g>
            <path d="M741.555,263.895 C745.19,266.136 752.264,268.64 758.149,268.64 C765.381,268.64 768.612,265.615 768.612,261.355 C768.612,256.951 765.932,254.717 757.934,251.868 C745.208,247.511 739.909,240.585 739.961,232.884 C739.961,221.449 749.467,212.535 764.637,212.535 C771.799,212.535 778.069,214.325 781.878,216.418 L778.62,227.963 C775.889,226.405 770.626,224.216 764.874,224.216 C759.024,224.216 755.766,227.1 755.766,231.098 C755.766,235.231 758.901,237.214 767.124,240.205 C778.954,244.39 784.417,250.436 784.469,260.011 C784.469,271.876 775.223,280.426 758.061,280.426 C750.19,280.426 743.04,278.543 738.254,275.869 L741.555,263.895" id="Fill-10" fill="#FFFFFE"></path>
            <g id="Group-17" transform="translate(0.000000, 69.614000)">
                <mask id="mask-6" fill="white">
                    <use xlink:href="#path-5"></use>
                </mask>
                <g id="Clip-12"></g>
                <path d="M820.221,127.68 L820.221,144.387 L835.87,144.387 L835.87,156.641 L820.221,156.641 L820.221,185.327 C820.221,193.292 822.348,197.332 828.635,197.332 C831.614,197.332 833.155,197.127 835.02,196.609 L835.352,209.131 C832.883,210.046 828.567,210.812 823.391,210.812 C817.34,210.812 812.315,208.755 809.251,205.449 C805.731,201.719 804.11,195.738 804.11,187.222 L804.11,156.641 L794.846,156.641 L794.846,144.387 L804.11,144.387 L804.11,132.286 L820.221,127.68" id="Fill-11" fill="#FFFFFE" mask="url(#mask-6)"></path>
                <path d="M902.032,170.332 C902.032,156.073 896.069,142.921 875.219,142.921 C864.975,142.921 856.559,145.706 851.647,148.691 L854.897,159.351 C859.336,156.567 866.016,154.506 872.391,154.506 C883.897,154.467 885.586,161.567 885.586,165.836 L885.586,166.922 C861.639,166.83 847.024,175.127 847.024,191.54 C847.024,201.452 854.327,210.883 867.522,210.883 C875.938,210.883 882.741,207.305 886.69,202.17 L887.075,202.17 L888.196,209.42 L903.038,209.42 C902.311,205.387 902.032,199.662 902.032,193.751 L902.032,170.332 Z M886.024,186.549 C886.024,187.682 885.92,188.988 885.561,190.121 C883.993,194.885 879.256,199.119 872.706,199.119 C867.504,199.119 863.329,196.133 863.329,189.754 C863.329,179.859 874.422,177.407 886.024,177.565 L886.024,186.549 L886.024,186.549 Z" id="Fill-13" fill="#FFFFFE" mask="url(#mask-6)"></path>
                <path d="M963.42,114.586 L963.42,151.397 L963.149,151.397 C960.243,146.59 953.833,142.921 944.919,142.921 C929.29,142.921 915.672,155.863 915.769474,177.648 C915.769474,197.638 928.073,210.883 943.598,210.883 C952.975,210.883 960.829,206.399 964.717,199.11 L965.006,199.11 L965.751,209.42 L980.391,209.42 C980.085,205.007 979.848,197.841 979.848,191.173 L979.848,114.586 L963.42,114.586 Z M963.42,181.212 C963.42,182.95 963.29,184.556 962.922,186.01 C961.266,193.13 955.444,197.718 948.727,197.718 C938.37,197.718 932.45,188.997 932.45,177.035 C932.45,164.986 938.317,155.639 948.913,155.639 C956.301,155.639 961.592,160.858 963.053,167.193 C963.333,168.52 963.42,170.153 963.42,171.479 L963.42,181.212 L963.42,181.212 Z" id="Fill-14" fill="#FFFFFE" mask="url(#mask-6)"></path>
                <path d="M244.036,206.314 L244.036,2.163 C244.036,2.16 244.036,2.16 244.036,2.154 C244.036,2.151 244.036,2.148 244.036,2.148 L244.036,2.129 C244.017,0.95 243.069,-2.84217094e-14 241.896,-2.84217094e-14 C241.454,-2.84217094e-14 241.044,0.135 240.698,0.365 L240.696,0.365 L174.996,49.75 L174.996,206.314 L175.004,206.314 C175.004,206.324 174.999,206.336 174.999,206.345 C174.999,207.533 175.956,208.49 177.136,208.498 L241.896,208.498 C243.081,208.498 244.036,207.533 244.036,206.345 C244.036,206.332 244.036,206.324 244.036,206.314" id="Fill-15" fill="#FFFFFE" mask="url(#mask-6)"></path>
                <path d="M68.99,49.75 L3.284,0.365 C2.945,0.135 2.531,-2.84217094e-14 2.09,-2.84217094e-14 C0.91,-2.84217094e-14 -0.041,0.95 -0.054,2.129 L-0.054,2.148 C-0.054,2.148 -0.057,2.151 -0.057,2.154 C-0.057,2.16 -0.054,2.16 -0.054,2.163 L-0.054,206.314 C-0.054,206.324 -0.06,206.332 -0.06,206.345 C-0.06,207.533 0.904,208.498 2.087,208.498 L66.847,208.498 C68.022,208.49 68.982,207.533 68.982,206.345 C68.982,206.336 68.979,206.324 68.979,206.314 L68.99,206.314 L68.99,49.75" id="Fill-16" fill="#FFFFFE" mask="url(#mask-6)"></path>
            </g>
            <path d="M96.873,256.565 L52.315,198.53 L119.405,146.473 L163.965,204.508 C167.583,209.391 175.783,224.315 164.018,239.313 C151.473,255.301 152.857,259.797 152.857,259.797 C152.857,259.797 149.802,256.999 130.538,265.409 C112.103,273.456 100.66,261.319 96.873,256.565" id="Fill-18" fill="#1A1919"></path>
            <path d="M97.615,254.856 L54.621,198.858 L119.358,148.625 L162.354,204.625 C165.844,209.338 174.33,224.752 162.5,239.12 C150.036,254.258 151.635,257.975 151.635,257.975 C151.635,257.975 149.102,255.18 130.724,263.756 C112.992,272.03 101.27,259.442 97.615,254.856" id="Fill-19" fill="#FFFFFE"></path>
            <path d="M137.816,144.69 C137.662,142.202 135.724,140.918 134.109,140.31 C131.966,134.418 132.236,132.224 131.993,129.938 C131.589,126.104 131.63,119.452 132.357,114.331 C133.086,109.209 129.203,100.781 123.02,97.138 C115.983,92.992 102.325,93.171 91.965,105.185 C90.39,107.015 82.932,116.221 77.047,123.964 C71.25,131.593 72.196,137.133 74.984,138.352 C74.984,138.352 77.569,139.019 87.297,139.999 C91.846,140.454 94.485,140.271 98.305,141.551 C101.051,142.471 103.248,146.399 101.793,149.327 C96.061,153.073 94.393,159.202 98.759,160.938 C105.65,163.682 115.318,152.159 120.503,149.327 L121.928,150.911 C131.63,152.86 138.181,150.543 137.816,144.69" id="Fill-20" fill="#1A1919"></path>
            <path d="M75.471,137.375 C75.471,137.375 80.719,138.482 88.815,136.643 C96.333,134.938 98.274,122.745 98.274,122.745 C105.553,120.794 119.865,121.524 119.865,121.524 C119.865,121.524 123.02,121.28 127.387,122.5" id="Stroke-21" stroke="#1A1919" stroke-width="0.228"></path>
            <path d="M103.217,150.424 C105.296,146.706 103.105,140.489 98.305,139.634 C94.212,138.901 92.6,138.653 89.3,138.475 C85.933,138.289 83.387,137.893 83.387,137.893 C83.387,137.893 87.389,137.62 93.392,136.064 C99.397,134.511 110.204,129.825 117.502,128.384 C128.597,126.189 130.964,128.2 130.964,128.2 C131.329,133.504 132.51,138.718 132.964,140.181 C132.964,140.181 133.817,139.989 129.57,140.546 C125.384,141.096 118.531,144.938 112.586,148.838 C108.337,151.627 102.76,156.006 101.853,155.18 C100.854,154.264 102.399,151.887 103.217,150.424" id="Fill-22" fill="#FFFFFE"></path>
            <path d="M94.212,134.145 C98.487,129.755 99.124,123.444 99.124,123.444 C110.223,122.348 113.028,122.181 119.775,122.348 C127.144,122.531 131.054,124.634 131.054,124.634 L130.964,127.378 C130.964,127.378 126.78,125.091 117.044,127.285 C110.257,128.815 106.765,130.212 100.67,132.132 C96.91,133.319 94.212,134.145 94.212,134.145" id="Fill-23" fill="#FFFFFE"></path>
            <path d="M77.411,124.939 C77.411,124.939 75.715,130.198 77.897,130.304 C82.992,130.546 97.789,123.72 97.789,123.72 L96.333,127.62 C96.333,127.62 82.749,134.206 76.44,132.985 C74.297,132.571 75.228,128.597 75.228,128.597 C75.228,128.597 75.955,127.134 77.411,124.939 Z" id="Stroke-24" stroke="#1A1919" stroke-width="0.228"></path>
            <path d="M75.38,129.938 C75.38,129.938 74.851,133.351 76.927,133.351 C82.263,133.351 90.39,130.944 96.396,127.925 C96.396,127.925 94.999,132.255 91.965,134.572 C91.965,134.572 81.172,137.863 76.562,136.767 C72.873,135.889 75.38,129.938 75.38,129.938" id="Fill-25" fill="#FFFFFE"></path>
            <path d="M78.26,125.548 C78.26,125.548 76.011,130.358 79.352,130.062 C83.477,129.694 90.835,127.716 97.91,123.842 L98.032,122.013 C98.032,122.013 105.005,120.976 115.74,121.159 C126.475,121.341 129.055,122.897 130.052,123.263 C130.052,123.263 130.32,119.962 130.69,115.763 C131.054,111.647 131.508,108.538 126.417,102.138 C121.321,95.735 115.619,95.919 111.314,96.284 C106.044,96.733 100.306,99.027 95.484,103.966 C90.037,109.545 80.96,121.556 78.26,125.548" id="Fill-26" fill="#FFFFFE"></path>
            <path d="M99.425,186.696 C98.395,186.516 96.131,188.477 98.213,190.356 L97.851,192.43 C97.851,192.43 96.498,192.741 96.212,193.891 C95.856,195.331 96.697,195.782 96.697,195.782 C96.697,195.782 98.061,196.096 98.336,196.147 C98.609,196.2 102.875,196.602 111.232,199.165 C119.589,201.729 123.971,204.147 124.553,204.374 L125.555,204.854 C125.555,204.854 129.014,204.18 130.463,204.366 C131.913,204.553 134.84,204.372 134.84,204.372 L134.461,203.165 C135.633,202.672 136.57,201.766 135.574,200.293 C135.574,200.293 129.869,196.653 119.925,192.592 C109.982,188.528 101.426,187.049 99.425,186.696" id="Fill-27" fill="#1A1919"></path>
            <path d="M99.968,190.368 C99.968,190.368 105.517,191.375 114.867,194.616 C124.22,197.86 132.305,201.995 132.305,201.995 L131.145,204.122 C131.145,204.122 124.065,200.35 114.238,197.204 C104.412,194.057 102.338,193.684 100.107,193.346 L99.968,190.368" id="Fill-28" fill="#FFFFFE"></path>
            <path d="M120.095,193.182 C119.007,191.704 118.598,190.311 118.598,190.311 C118.598,190.311 118.262,190.774 115.712,191.34 C112.926,191.965 110.574,191.106 109.161,189.827 C109.161,189.827 108.11,188.668 107.802,188.206 C107.388,187.581 107.207,186.959 107.207,186.959 C106.159,187.958 104.947,188.637 103.631,188.756 C100.455,189.047 97.17,186.211 95.78,180.944 C94.52,181.749 92.837,181.612 91.72,180.524 C91.655,180.463 91.598,180.399 91.54,180.331 C90.378,179.334 89.256,178.899 89.256,178.899 L89.222,178.85 C89.222,178.85 90.306,177.979 91.15,176.497 L91.154,176.493 C91.289,176.258 91.449,176.036 91.645,175.834 C92.081,175.379 92.608,175.098 93.176,174.95 C92.912,173.877 93.179,172.715 93.999,171.862 C94.061,171.799 94.126,171.741 94.192,171.684 C95.182,170.514 95.618,169.387 95.618,169.387 L95.665,169.354 C95.665,169.354 96.532,170.444 98.006,171.292 L98.009,171.297 C98.243,171.432 98.464,171.592 98.667,171.79 C99.263,172.372 99.604,173.12 99.664,173.895 C100.668,173.721 101.746,174.006 102.533,174.772 C102.595,174.834 102.654,174.899 102.71,174.963 C103.873,175.961 104.995,176.399 104.995,176.399 L105.029,176.446 C105.029,176.446 103.945,177.317 103.099,178.799 L103.096,178.803 C102.962,179.036 102.802,179.258 102.606,179.463 C102.001,180.092 101.567,180.377 100.763,180.418 C101.086,182.028 101.392,182.827 102.46,182.977 C104.057,183.204 105.46,181.458 105.976,178.588 L105.976,178.53 C105.445,177.604 105.661,176.389 106.34,175.481 C107.247,174.268 109.198,174.141 110.404,175.053 C111.61,175.967 111.86,178.165 110.586,179.444 C110.373,179.657 110.76,179.403 110.525,179.565 C110.001,182.629 111.159,185.256 113.498,185.663 C114.951,185.915 116.123,185.342 117.137,184.018 C115.74,184.018 114.783,182.93 114.347,181.598 C114.316,181.504 114.291,181.415 114.269,181.319 C113.64,179.75 112.877,178.667 112.877,178.667 L112.869,178.602 C112.869,178.602 114.406,178.135 116.031,177.208 L116.045,177.186 C116.301,177.04 116.571,176.94 116.873,176.856 C117.644,176.641 118.441,176.928 119.156,177.178 L119.157,177.163 C119.199,175.786 120.3,174.934 121.567,174.584 C121.664,174.557 121.758,174.54 121.853,174.52 C123.455,173.969 124.656,172.981 124.656,172.981 L124.582,173.245 C124.582,173.245 125.082,174.497 125.969,175.952 C126.027,176.026 126.09,176.102 126.146,176.186 C126.902,177.266 127.082,178.774 126.311,179.719 L126.305,179.731 C127.013,179.999 127.897,180.307 128.357,180.965 C128.534,181.225 128.615,181.606 128.722,181.879 C129.387,183.637 130.538,184.93 130.538,184.93 L130.6,184.93 C130.6,184.93 128.927,185.403 127.446,186.211 C127.372,186.266 127.467,186.157 127.387,186.211 C126.205,186.956 124.737,187.454 123.504,186.333 C123.446,188.002 124.105,189.315 125.384,190.053 C127.446,191.237 129.81,189.741 131.57,187.247 C131.493,186.971 131.306,186.391 131.329,186.086 C131.449,184.321 132.852,183.459 134.361,183.526 C135.866,183.596 137.394,184.803 137.394,186.577 C137.394,187.917 136.788,189.077 135.574,189.258 C134.725,191.575 134.016,193.774 135.391,194.624 C136.308,195.19 137.033,195.045 138.302,194.014 C137.709,193.463 137.643,192.934 137.575,192.065 C137.552,191.784 137.531,191.536 137.575,191.27 L137.575,191.208 C137.863,189.528 137.659,188.215 137.659,188.215 L137.714,188.2 C137.714,188.2 138.959,188.428 140.486,188.407 C140.573,188.393 140.458,188.411 140.545,188.407 C141.637,188.319 142.744,188.909 143.407,189.684 C143.948,189.125 144.623,188.643 145.454,188.577 C145.733,188.555 146.007,188.573 146.272,188.616 L146.309,188.59 C147.982,188.879 149.37,188.743 149.37,188.743 L149.385,188.801 C149.385,188.801 149.196,189.918 149.22,191.454 C149.233,191.54 149.211,191.67 149.22,191.758 C149.314,192.938 148.627,193.995 147.743,194.653 C148.085,195.127 148.502,195.704 148.552,196.331 C148.573,196.612 148.536,196.858 148.493,197.122 C148.203,198.811 148.321,200.19 148.321,200.19 L148.263,200.206 C148.263,200.206 147.168,200.026 145.64,200.049 C145.556,200.065 145.546,200.04 145.46,200.049 C143.457,200.293 142.489,199.137 141.88,197.977 C137.468,201.149 133.633,201.331 130.936,198.6 C130.003,197.657 129.49,196.366 129.315,194.926 C129.315,194.926 128.786,195.297 128.072,195.502 C127.349,195.708 126.282,195.815 126.282,195.815 C123.759,195.831 121.357,194.889 120.095,193.182" id="Fill-29" fill="#1A1919"></path>
            <path d="M119.181,188.411 C119.692,191.481 121.7,193.926 124.522,194.592 C126.578,195.075 128.668,194.497 130.364,193.174 L130.364,193.229 C130.261,195.1 130.675,196.903 131.857,198.014 C133.898,199.928 137.903,199.454 141.643,196.538 C141.692,196.5 141.742,196.461 141.792,196.422 L141.855,196.366 C141.985,196.266 142.148,196.209 142.321,196.217 C142.688,196.235 142.977,196.542 143.003,196.899 C143.092,197.985 144.042,198.784 145.148,198.665 C145.205,198.661 145.258,198.651 145.311,198.639 C146.259,198.6 146.96,198.815 146.96,198.815 L146.997,198.803 C146.997,198.803 146.841,197.969 147.049,196.926 L147.049,196.92 C147.081,196.754 147.096,196.588 147.086,196.415 C147.062,195.905 146.847,195.459 146.517,195.135 L146.409,195.006 C146.265,194.846 146.184,194.631 146.194,194.395 C146.21,194.057 146.402,193.786 146.679,193.661 C147.369,193.301 147.809,192.555 147.743,191.727 C147.74,191.672 147.733,191.62 147.725,191.569 C147.709,190.635 147.939,189.938 147.939,189.938 L147.93,189.907 C147.93,189.907 147.106,190.079 146.091,189.903 L146.088,189.903 C145.926,189.877 145.761,189.868 145.59,189.881 C144.851,189.938 144.228,190.395 143.933,191.028 C143.777,191.208 143.544,191.317 143.294,191.305 C143.049,191.293 142.832,191.165 142.694,190.969 C142.638,190.893 142.598,190.815 142.551,190.731 C142.169,190.116 141.49,189.704 140.707,189.778 C140.651,189.782 140.598,189.79 140.545,189.799 C139.602,189.829 138.899,189.604 138.899,189.604 L138.865,189.614 C138.865,189.614 139.027,190.454 138.834,191.495 L138.834,191.497 C138.803,191.661 138.791,191.831 138.8,192.002 C138.837,192.583 139.142,193.112 139.559,193.446 C139.767,193.577 139.929,193.84 139.917,194.106 C139.907,194.327 139.814,194.508 139.652,194.633 C137.95,196.198 136.006,196.784 134.666,195.954 C132.805,194.803 132.836,191.36 134.731,188.262 C134.753,188.227 134.753,188.206 134.774,188.17 C135.509,187.997 136.044,187.391 136.078,186.627 C136.119,185.696 135.369,184.903 134.402,184.858 C133.431,184.815 132.613,185.532 132.569,186.463 C132.557,186.766 132.632,187.038 132.765,187.292 C132.682,187.467 132.595,187.627 132.498,187.799 C130.628,191.081 127.086,192.571 124.578,191.129 C122.81,190.112 122.03,187.909 122.382,185.545 L122.398,185.428 C122.456,185.104 122.744,184.864 123.082,184.879 C123.226,184.885 123.342,184.93 123.449,185.014 C124.314,185.717 125.555,185.836 126.531,185.233 C126.59,185.196 126.646,185.155 126.699,185.116 C127.748,184.559 128.684,184.411 128.684,184.411 L128.718,184.383 C128.718,184.383 127.997,183.555 127.551,182.309 L127.548,182.305 C127.477,182.108 127.383,181.917 127.262,181.731 C126.855,181.125 126.23,180.733 125.555,180.594 L125.62,180.606 C125.253,180.588 124.967,180.282 124.982,179.92 C124.988,179.795 125.032,179.678 125.097,179.581 L125.094,179.596 C125.645,178.793 125.654,177.7 125.025,176.819 C124.985,176.762 124.942,176.708 124.899,176.655 C124.26,175.633 124.062,174.754 124.062,174.754 C124.062,174.754 123.328,175.327 122.189,175.706 C122.122,175.717 122.054,175.731 121.986,175.749 C120.945,176.026 120.258,176.875 120.173,177.848 L120.179,177.833 C120.171,177.952 120.129,178.069 120.055,178.172 C119.839,178.459 119.425,178.512 119.128,178.288 L119.186,178.321 C118.581,177.995 117.849,177.899 117.15,178.106 C116.938,178.17 116.745,178.258 116.566,178.362 L116.562,178.366 C115.428,179.04 114.35,179.215 114.35,179.215 L114.356,179.26 C114.356,179.26 114.985,179.973 115.439,181.077 C115.454,181.141 115.473,181.206 115.494,181.272 C115.865,182.364 116.896,183.069 118.01,183.079 C118.144,183.079 118.263,183.122 118.378,183.209 C118.646,183.415 118.717,183.782 118.556,184.071 L118.496,184.172 C117.268,186.217 115.271,187.415 113.266,187.067 C110.422,186.573 108.632,183.155 109.272,179.43 C109.305,179.233 109.34,179.057 109.386,178.868 C109.648,178.76 109.88,178.596 110.061,178.356 C110.617,177.614 110.44,176.536 109.665,175.946 C108.891,175.36 107.811,175.489 107.253,176.233 C106.796,176.846 106.825,177.657 107.279,178.258 C107.275,178.299 107.261,178.315 107.255,178.354 C106.751,181.959 104.593,184.633 102.433,184.329 C100.872,184.104 99.745,182.413 99.425,180.12 C99.377,179.918 99.422,179.717 99.556,179.542 C99.713,179.329 100.005,179.231 100.251,179.26 C100.781,179.27 101.35,179.059 101.749,178.633 C101.867,178.51 101.963,178.37 102.044,178.225 L102.047,178.221 C102.554,177.295 103.212,176.754 103.212,176.754 L103.192,176.723 C103.192,176.723 102.508,176.446 101.798,175.819 C101.764,175.776 101.73,175.735 101.69,175.696 C101.131,175.137 100.348,175.024 99.661,175.254 C99.572,175.29 99.49,175.321 99.401,175.346 C99.173,175.405 98.924,175.364 98.725,175.217 C98.528,175.067 98.416,174.834 98.41,174.598 C98.583,173.922 98.392,173.17 97.857,172.649 C97.736,172.528 97.603,172.434 97.463,172.35 L97.458,172.348 C96.564,171.833 96.038,171.17 96.038,171.17 L96.01,171.192 C96.01,171.192 95.746,171.877 95.145,172.586 C95.104,172.62 95.064,172.657 95.027,172.696 C94.451,173.293 94.319,174.147 94.622,174.868 C94.759,175.141 94.734,175.473 94.532,175.743 C94.393,175.932 94.191,176.045 93.979,176.081 L93.814,176.108 C93.353,176.145 92.907,176.352 92.563,176.731 C92.447,176.858 92.351,176.997 92.272,177.145 L92.269,177.147 C91.77,178.083 91.12,178.629 91.12,178.629 L91.142,178.661 C91.142,178.661 91.82,178.942 92.523,179.581 C92.558,179.624 92.592,179.667 92.631,179.706 C93.409,180.506 94.647,180.5 95.409,179.717 C95.652,179.458 96.072,179.407 96.361,179.627 C96.502,179.733 96.593,179.881 96.629,180.043 L96.641,180.125 C96.653,180.186 96.666,180.25 96.682,180.313 C97.719,184.954 100.505,187.885 103.292,187.715 C104.908,187.618 106.368,186.493 107.474,184.985 L107.509,184.942 C107.979,187.043 109.222,188.833 111.112,189.774 C113.697,191.061 116.826,190.409 119.181,188.411" id="Fill-30" fill="#FFFFFE"></path>
            <path d="M144.797,194.211 C144.751,195.229 143.892,196.018 142.878,195.973 C141.867,195.924 141.083,195.061 141.13,194.043 C141.173,193.024 142.035,192.233 143.049,192.28 C144.06,192.329 144.844,193.192 144.797,194.211" id="Fill-31" fill="#1A1919"></path>
            <path d="M144.023,194.176 C143.995,194.762 143.501,195.219 142.916,195.192 C142.331,195.165 141.876,194.667 141.904,194.081 C141.933,193.491 142.426,193.036 143.011,193.063 C143.596,193.088 144.051,193.586 144.023,194.176" id="Fill-32" fill="#FFFFFE"></path>
            <path d="M123.355,181.604 C123.308,182.622 122.45,183.413 121.436,183.364 C120.422,183.319 119.639,182.456 119.685,181.436 C119.732,180.415 120.59,179.625 121.604,179.674 C122.618,179.721 123.402,180.584 123.355,181.604" id="Fill-33" fill="#1A1919"></path>
            <path d="M122.578,181.567 C122.553,182.155 122.055,182.61 121.472,182.584 C120.885,182.555 120.434,182.059 120.46,181.471 C120.487,180.883 120.984,180.43 121.569,180.454 C122.153,180.483 122.606,180.979 122.578,181.567" id="Fill-34" fill="#FFFFFE"></path>
            <path d="M98.953,177.471 C98.906,178.491 98.046,179.278 97.033,179.231 C96.019,179.184 95.235,178.321 95.282,177.303 C95.327,176.282 96.187,175.495 97.201,175.542 C98.213,175.588 98.998,176.452 98.953,177.471" id="Fill-35" fill="#1A1919"></path>
            <path d="M98.174,177.436 C98.148,178.024 97.652,178.479 97.067,178.45 C96.483,178.424 96.03,177.926 96.056,177.336 C96.085,176.749 96.579,176.295 97.164,176.319 C97.749,176.348 98.203,176.848 98.174,177.436" id="Fill-36" fill="#FFFFFE"></path>
            <path d="M97.244,192.735 C97.6,193.04 98.492,193.456 99.086,194.01 C99.624,194.508 100.307,194.194 100.773,193.981 C101.4,193.694 101.801,193.485 102.147,193.305 C102.894,192.917 102.586,192.27 101.998,191.661 C101.399,191.043 100.98,190.612 100.555,190.118 C100.128,189.62 99.118,189.557 98.579,189.807 C97.857,190.145 97.526,190.334 97.052,190.694 C96.609,191.028 96.598,192.174 97.244,192.735" id="Fill-37" fill="#1A1919"></path>
            <path d="M101.086,191.991 C101.048,192.782 100.383,193.393 99.595,193.36 C98.806,193.323 98.198,192.649 98.234,191.858 C98.269,191.067 98.937,190.454 99.724,190.491 C100.513,190.526 101.122,191.198 101.086,191.991" id="Fill-38" fill="#FFFFFE"></path>
            <path d="M105.115,194.182 C105.469,194.489 106.235,195.344 106.83,195.899 C107.37,196.397 108.051,196.081 108.514,195.872 C109.143,195.581 109.544,195.375 109.891,195.194 C110.635,194.805 110.329992,194.157 109.741,193.549 C109.143,192.93 108.723,192.5 108.296,192.006 C107.871,191.51 107.146,191.422 106.628,191.717 C106.004,192.069 105.541,192.194 104.794,192.583 C104.305,192.836 104.467,193.625 105.115,194.182" id="Fill-39" fill="#1A1919"></path>
            <path d="M108.829,193.875 C108.794,194.67 108.126,195.282 107.338,195.245 C106.552,195.209 105.94,194.538 105.976,193.747 C106.014,192.954 106.683,192.342 107.469,192.377 C108.256,192.415 108.866,193.086 108.829,193.875" id="Fill-40" fill="#FFFFFE"></path>
            <path d="M114.29,196.928 C114.646,197.237 115.411,198.092 116.007,198.645 C116.543,199.145 117.227,198.827 117.689,198.618 C118.32,198.327 118.721,198.12 119.065,197.94 C119.813,197.551 119.506,196.903 118.916,196.297 C118.316,195.678 117.899,195.245 117.473,194.749 C117.046,194.254 116.322,194.168 115.803,194.461 C115.179,194.817 114.717,194.94 113.969,195.329 C113.481,195.581 113.642,196.37 114.29,196.928" id="Fill-41" fill="#1A1919"></path>
            <path d="M118.005,196.624 C117.969,197.415 117.302,198.028 116.516,197.993 C115.727,197.958 115.116,197.286 115.153,196.491 C115.19,195.7 115.856,195.088 116.645,195.124 C117.433,195.159 118.041,195.831 118.005,196.624" id="Fill-42" fill="#FFFFFE"></path>
            <path d="M122.857,200.334 C123.213,200.641 123.981,201.499 124.575,202.049 C125.112,202.549 125.794,202.235 126.258,202.022 C126.889,201.735 127.288,201.526 127.632,201.344 C128.382,200.958 128.075,200.309 127.483,199.7 C126.886,199.083 126.469,198.651 126.04,198.155 C125.613,197.661 124.889,197.575 124.373,197.866 C123.748,198.223 123.284,198.344 122.537,198.733 C122.049,198.989 122.211,199.776 122.857,200.334" id="Fill-43" fill="#1A1919"></path>
            <path d="M126.572,200.03 C126.538,200.823 125.869,201.434 125.082,201.397 C124.294,201.36 123.685,200.69 123.721,199.901 C123.756,199.106 124.425,198.495 125.212,198.532 C126,198.567 126.609,199.239 126.572,200.03" id="Fill-44" fill="#FFFFFE"></path>
            <path d="M135.829,204.68 C136.125,204.561 135.802,203.618 135.633,203.161 C135.148,201.819 134.221,202.6 133.794,202.104 C133.369,201.608 132.644,201.522 132.128,201.817 C131.502,202.17 131.039,202.295 130.293,202.682 C129.803,202.938 129.965,203.723 130.613,204.282 C130.731,204.381 130.889,204.542 131.073,204.731 C131.073,204.731 135.475,204.821 135.829,204.68" id="Fill-45" fill="#1A1919"></path>
            <path d="M134.33,203.715 C134.311,202.973 133.754,202.514 132.967,202.479 C132.181,202.442 131.521,203.057 131.489,203.741 C131.489,203.741 131.857,203.76 132.855,203.803 C133.851,203.85 134.33,203.715 134.33,203.715" id="Fill-46" fill="#FFFFFE"></path>
            <path d="M127.941,203.553 C124.874,202.125 120.468,200.235 115.129,198.393 C105.04,194.918 99.543,193.924 98.837,193.84 C97.739,193.711 97.241,194.85 98.489,195.145 C99.413,195.362 104.359,196.049 114.757,199.618 C118.839,201.018 122.345,202.422 125.135,203.631 C125.135,203.631 125.595,203.52 126.071,203.481 C126.546,203.444 127.941,203.553 127.941,203.553" id="Fill-47" fill="#FFFFFE"></path>
            <path d="M99.481,189.485 C100.405,189.704 105.353,190.391 115.751,193.958 C126.152,197.526 132.827,201.116 133.378,201.504 C134.221,202.098 134.98,200.942 133.673,200.25 C132.955,199.87 126.211,196.209 116.123,192.735 C106.035,189.258 100.539,188.266 99.829,188.182 C98.733,188.051 98.234,189.192 99.481,189.485" id="Fill-48" fill="#FFFFFE"></path>
            <path d="M130.055,197.405 C129.664,196.67 129.425,195.827 129.315,194.926 C129.315,194.926 128.786,195.297 128.072,195.502 C127.543,195.653 126.824,195.75 126.481,195.792 L126.481,195.782 C127.841,196.372 129.045,196.924 130.065,197.407 L130.055,197.405" id="Fill-49" fill="#FFFFFE"></path>
            <path d="M107.802,188.206 C107.998,188.5 108.496,189.073 108.829,189.454 L108.858,189.456 C107.397,189.028 106.117,188.682 105.023,188.401 L105.034,188.411 C105.815,188.096 106.545,187.594 107.207,186.959 C107.207,186.959 107.388,187.581 107.802,188.206" id="Fill-50" fill="#FFFFFE"></path>
            <path d="M115.134,191.452 C115.147,191.45 115.156,191.448 115.169,191.446 C115.15,191.438 115.129,191.432 115.112,191.426 L115.134,191.452" id="Fill-51" fill="#FFFFFE"></path>
            <path d="M120.148,193.213 L120.095,193.182 C119.007,191.704 118.598,190.311 118.598,190.311 C118.598,190.311 118.263,190.77 115.728,191.338 C115.719,191.34 115.712,191.34 115.712,191.34 C115.529,191.383 115.349,191.418 115.169,191.446 C115.613,191.594 116.065,191.749 116.527,191.907 C117.791,192.342 118.997,192.78 120.148,193.213" id="Fill-52" fill="#FFFFFE"></path>
            <path d="M101.125,151.793 C99.397,155.27 99.669,157.311 101.035,157.374 C104.427,157.526 109.733,152.504 116.711,147.497 C119.897,145.209 124.062,143.495 126.871,142.741 C130.964,141.645 131.811,142.008 133.148,142.649 C135.241,143.657 134.33,145.668 134.33,145.668 C134.33,145.668 135.241,142.01 126.417,144.573 C119.918,146.456 116.386,150.858 109.584,155.819 C104.947,159.202 100.215,160.938 98.395,158.469 C96.669,156.127 101.125,151.793 101.125,151.793" id="Fill-53" fill="#FFFFFE"></path>
            <path d="M121.443,148.594 C121.443,148.594 121.928,148.106 123.141,147.618 C123.253,147.573 127.508,148.372 129.692,147.862 C133.602,146.948 135.571,145.036 134.693,147.68 C134.056,149.598 131.596,149.911 128.326,150.241 C124.687,150.606 122.322,149.692 122.322,149.692 L121.443,148.594" id="Fill-54" fill="#FFFFFE"></path>
            <path d="M166.441,176.272 C166.441,176.272 165.016,175.198 164.746,175.174 C163.29,175.053 159.651,174.2 156.982,171.516 C154.916,169.44 151.404,164.811 151.404,164.811 C151.404,164.811 152.978,168.711 155.647,171.639 C160.251,176.686 166.441,176.272 166.441,176.272" id="Fill-55" fill="#1A1919"></path>
            <path d="M97.366,195.233 C97.366,195.233 98.727,195.438 104.218,196.879 C109.709,198.321 113.392,199.44 117.767,201.049 C122.07,202.633 124.92,203.723 124.92,203.723 C126.435,203.118 128.504,203.586 132.236,203.555 C138.019,203.508 140.331,205.649 142.607,205.78 C145.761,205.965 149.463,203.829 150.978,203.829 C151.955,203.829 150.039,208.127 146.066,210.11 C144.28,210.999 142.517,212.092 137.151,213.463 C136.57,213.61 137.724,213.325 137.151,213.403 C139.571,213.672 141.846,213.635 145.398,214.438 C149.855,215.442 152.396,219.241 153.706,220.475 C155.162,221.846 158.528,219.743 158.528,219.743 C157.983,223.583 156.892,225.565 154.375,227.182 C151.644,228.932 147.945,228.399 147.945,228.399 C149.22,230.135 150.007,231.571 150.372,234.678 C150.841,238.7 147.702,240.959 147.702,240.959 C146.853,236.752 143.034,235.532 143.034,235.532 C143.034,235.532 145.177,239.668 144.975,243.885 C144.732,248.946 140.971,250.532 140.971,250.532 C140.971,250.532 139.699,246.536 137.515,244.25 C135.496,242.139 132.874,241.323 132.874,241.323 C132.964,243.153 132.905,245.227 131.449,248.704 C129.381,253.641 124.656,254.676 124.656,254.676 C125.203,252.114 123.99,249.067 121.867,246.506 C120.457,244.807 119.44,243.215 119.44,243.215 C119.778,248.696 116.099,250.571 113.865,251.627 C112.083,252.471 110.344,252.848 110.344,252.848 C111.072,250.194 109.555,247.36 108.281,244.616 C107.009,241.874 107.313,237.874 107.313,237.874 C107.313,237.874 105.583,238.672 104.308,240.682 C102.561,243.448 104.399,247.36 104.399,247.36 C104.399,247.36 98.968,245.473 97.304,242.329 C95.03,238.032 97.031,234.01 97.031,234.01 C97.031,234.01 96.577,234.01 95.578,235.657 C94.576,237.301 95.212,241.69 95.212,241.69 C95.212,241.69 90.937,238.397 90.662,234.467 C90.39,230.534 91.12,228.887 94.757,226.053 C95.521,225.458 96.396,225.321 97.398,223.583 C96.85,223.217 94.454,222.122 91.846,221.145 C88.451,219.875 84.749,219.68 84.749,219.68 C85.539,217.852 88.984,217.471 92.846,218.096 C98.88,219.071 100.215,219.559 100.215,219.559 C98.638,217.729 96.184,214.917 88.388,213.342 C81.265,212.663 80.971,217.875 80.383,217.913 C80.091,217.979 78.149,214.592 77.302,211.137 C76.397,207.446 78.456,203.278 80.729,202.024 C85.017,199.653 95.303,200.813 95.303,200.813 C95.303,200.813 93.546,198.831 97.366,195.233" id="Fill-56" fill="#1A1919"></path>
            <path d="M97.851,196.209 C97.851,196.209 100.536,196.657 104.704,197.793 C109.615,199.137 112.222,199.987 116.773,201.633 C121.321,203.28 123.806,204.379 123.806,204.379 C122.898,205.417 123.576,206.784 123.576,206.784 C123.576,206.784 123.931,205.838 125.06,205.348 C126.233,204.836 127.583,204.559 132.693,204.926 C136.542,205.204 138.06,206.665 141.699,207.122 C145.491,207.598 148.672,205.934 149.037,205.659 C147.824,208.096 143.289,209.706 141.245,210.506 C137.506,211.965 134.429,212.801 131.993,212.608 C129.561,212.417 127.368,211.793 127.368,211.793 C127.776,212.299 130.052,213.522 133.086,214.073 C136.29,214.768 142.489,214.866 146.004,216.147 C149.522,217.424 151.28,220.108 152.736,221.694 C154.191,223.278 156.68,221.879 156.68,221.879 C156.011,223.766 154.449,226.108 150.888,226.784 C147.671,227.393 144.975,226.784 144.975,226.784 C146.732,228.614 148.359,231.59 148.794,234.01 C149.249,236.54 148.066,237.848 148.066,237.848 C148.066,237.848 147.249,236.569 145.46,235.167 C143.528,233.655 140.788,233.735 140.788,233.735 C142.336,236.782 143.519,241.049 143.336,244.161 C143.155,247.268 141.425,248.09 141.425,248.09 C140.76,246.262 139.699,244.524 137.696,242.604 C135.304,240.309 131.266,239.313 131.266,239.313 C132.056,242.971 131.297,245.348 129.782,248.456 C128.264,251.567 126.053,252.665 126.053,252.665 C126.506,249.737 124.264,247.147 122.139,244.709 C120.017,242.27 118.41,239.676 118.41,239.676 C118.41,239.676 118.41,245.411 116.832,247.483 C114.865,250.069 111.982,251.141 111.982,251.141 C111.982,251.141 112.043,250.288 111.616,248.581 C111.193,246.874 110.064,245.625 109.041,242.241 C108.101,239.127 109.069,235.899 109.069,235.899 C106.431,236.54 104.127,238.397 103.005,240.288 C101.472,242.87 102.307,245.256 102.307,245.256 C102.307,245.256 100.5,244.297 99.034,242.329 C97.668,240.5 97.639,237.942 98.124,234.924 C98.542,232.317 98.943,230.809 98.943,230.809 C95.484,232.364 93.03,235.29 93.938,238.948 C93.938,238.948 91.907,236.508 91.846,233.338 C91.785,230.167 94.399,228.161 96.759,226.143 C97.972,225.108 98.943,223.766 98.943,223.766 C101.428,224.557 102.955,224.743 104.583,224.743 C106.158,224.743 107.068,225.838 107.068,225.838 C107.068,225.838 107.174,225.059 106.946,224.315 C106.773,223.737 106.447,223.217 106.402,223.217 C106.402,223.217 103.441,224.846 96.092,221.512 C92.332,219.805 87.175,219.071 87.175,219.071 C87.175,219.071 90.271,218.219 93.908,219.438 C99.351,221.26 102.52,221.024 102.52,221.024 C102.52,221.024 101.898,218.756 98.759,216.266 C95.303,213.522 92.392,212.426 88.025,211.877 C82.385,211.168 80.202,214.987 80.202,214.987 C80.202,214.987 79.041,212.911 78.581,210.499 C77.941,207.125 79.67,204.018 81.89,202.911 C85.879,200.926 92.339,201.844 95.911,202.245 C95.957,202.315 95.969,202.305 95.969,202.305 C96.153,203.038 95.877,204.499 97.002,205.598 C98.563,207.124 100.112,206.862 101.882,206.477 C103.376,206.153 104.688,204.879 105.076,204.483 C105.267,204.526 105.419,204.579 105.587,204.602 C107.31,204.836 108.676,204.836 108.676,204.836 C108.676,204.836 107.382,204.399 105.432,203.28 C104.097,202.514 102.763,201.149 100.883,200.538 C98.292,199.698 98.336,200.842 96.759,200.356 C95.7,200.028 96.304,197.856 97.851,196.209" id="Fill-57" fill="#FFFFFE"></path>
            <path d="M90.274,205.35 C90.274,205.35 88.444,204.586 89.18,203.686 C90.019,202.665 90.662,202.639 92.196,203.206 C93.727,203.768 95.001,204.915 95.001,204.915 C95.001,204.915 92.507,203.411 91.011,204.067 C89.99,204.51 90.274,205.35 90.274,205.35" id="Fill-58" fill="#1A1919"></path>
            <path d="M99.973,202.063 C101.914,202.428 102.278,203.219 103.035,204.288 C101.732,205.417 100.125,205.934 98.759,205.292 C98.825,205.422 100.055,204.999 100.398,204.194 C100.67,203.555 100.582,202.571 99.973,202.063" id="Fill-59" fill="#FFFFFE"></path>
            <path d="M129.921,206.2 C125.415,204.944 125.377,207.75 125.377,207.75 C125.859,208.034 128.267,208.596 128.267,208.596 L126.989,207.557 C126.989,207.557 127.372,207.036 129.502,207.399 L131.599,208.77 L131.272,207.735 C133.848,208.249 137.609,209.028 139.142,209.053 C141.086,209.084 141.867,208.209 141.867,208.209 C139.786,208.721 134.429,207.458 129.921,206.2" id="Fill-60" fill="#1A1919"></path>
            <path d="M110.829,230.534 C110.011,232.485 107.085,234.647 107.357,237.92 C107.631,241.19 108.857,243.245 108.857,243.245 C108.857,243.245 107.895,239.563 108.949,236.385 C109.921,233.461 110.586,233.706 111.404,231.356 C112.667,227.733 111.496,226.329 111.496,226.329 C111.496,226.329 111.557,228.795 110.829,230.534" id="Fill-61" fill="#1A1919"></path>
            <path d="M126.78,234.862 C126.596,234.252 127.235,233.278 127.235,233.278 C127.235,233.278 127.629,235.45 129.81,237.42 C132.236,239.618 135.21,240.897 135.21,240.897 C135.21,240.897 132.688,241.608 130.298,239.739 C128.115,238.032 127.116,235.983 126.78,234.862" id="Fill-62" fill="#1A1919"></path>
            <path d="M147.065,229.528 C147.065,229.528 146.247,228.108 144.337,226.098 C142.591,224.258 139.699,222.944 139.699,222.944 C139.699,222.944 142.903,223.907 144.61,225.092 C146.658,226.508 147.202,227.608 147.202,227.608 L147.065,229.528" id="Fill-63" fill="#1A1919"></path>
            <path d="M196.692,202 C195.417,202.793 195.038,202.809 194.964,203.692 C194.872,204.758 196.101,205.065 196.739,204.379 C197.532,203.522 196.749,201.965 196.692,202 Z M208.653,195.874 C207.61,197.241 208.196,198.858 209.991,198.831 C212.112,198.801 213.384,194.5 213.384,194.5 C214.72,195.782 215.894,197.897 215.204,200.721 C213.749,206.665 207.357,206.756 203.925,204.194 C200.739,201.819 200.923,199.35 200.923,199.35 L197.827,201.178 C197.827,201.178 200.185,202.467 200.376,205.11 C200.786,210.764 193.233,212.883 189.776,208.356 C184.753,201.78 193.144,195.645 193.144,195.645 C187.433,192.891 189.208,186.059 193.675,184.575 C198.769,182.885 200.892,186.27 200.892,186.27 C200.331,186.407 197.107,186.565 197.056,188.762 C196.997,191.282 200.802,192.213 204.601,189.598 C209.845,185.987 210.474,179.961 210.474,179.961 C210.474,179.961 208.474,175.663 203.017,173.1 C196.876,170.223 192.278,172.553 192.278,172.553 C196.587,173.924 195.737,178.588 195.737,178.588 C195.737,178.588 190.741,180.594 186.216,178.713 C181.97,176.944 179.606,177.614 179.606,177.614 C183.426,180.083 185.366,185.813 180.455,189.838 C180.312,189.954 177.45,186.344 175.904,184.686 C169.537,177.86 164.198,180.54 158.68,178.467 C154.092,176.743 151.569,174.063 151.569,174.063 C151.569,174.063 151.632,175.02 151.659,176.852 C151.69,178.713 151.205,180.51 151.205,180.51 C151.205,180.51 148.486,179.917 146.794,178.588 C144.928,177.127 143.753,174.338 143.519,171.731 C143.333,169.663 143.425,168.805 143.609,166.518 C143.609,166.518 142.847,167.59 140.788,168.165 C138.741,168.737 136.678,168.272 136.694,168.165 C137.425,163.225 137.804,157.276 136.059,151.428 C134.42,145.94 131.148,139.999 131.148,139.999 L132.604,140.79 C132.604,140.79 133.813,138.352 133.45,137.62 C133.45,137.62 134.177,139.937 137.453,141.034 C140.729,142.131 141.062,142.375 142.426,140.819 C142.426,140.819 146.43,144.204 148.066,146.948 C149.703,149.692 152.618,151.036 156.074,152.159 C158.316,152.891 161.712,152.434 161.712,152.434 C163.169,159.477 157.165,159.385 157.165,159.385 C157.165,159.385 159.134,160.875 163.076,161.581 C165.807,162.069 168.354,162.038 168.354,162.038 C168.354,162.038 168.983,166.424 164.805,168.073 C162.257,169.079 160.319,168.711 160.319,168.711 C160.319,168.711 162.077,171.397 162.864,171.516 C164.235,171.729 167.73,171.493 170.265,170.542 C177.814,167.708 176.946,162.651 177.543,159.934 C178.119,157.311 179.997,153.989 179.997,153.989 C179.997,153.989 182.639,154.979 183.911,157.831 C185.093,160.483 184.274,162.86 184.274,162.86 C184.274,162.86 184.966,161.727 186.095,160.116 C189.366,155.454 195.917,157.739 195.917,157.739 C195.464,162.038 193.554,162.86 193.554,162.86 C193.554,162.86 196.63,161.34 203.286,163.043 C213.657,165.696 217.751,173.834 216.933,182.155 C216.062,191.01 211.659,191.94 208.653,195.874 L208.653,195.874 Z" id="Fill-64" fill="#1A1919"></path>
            <path d="M176.491,141.729 C176.491,141.729 180.78,142.299 181.454,147.04 C182.044,151.2 178.408,155.27 172.631,154.721 C167.576,154.241 164.842,150.096 164.351,146.217 C163.623,140.454 166.351,136.797 168.718,134.418 C168.718,134.418 166.261,134.145 164.077,131.858 C161.626,129.292 160.985,123.628 160.985,123.628 C160.985,123.628 163.713,123.263 166.351,123.811 C169.135,124.39 170.535,125.122 173.085,124.269 C175.814,123.354 176.357,122.165 176.357,122.165 C176.357,122.165 171.029,124.88 168.17,120.062 C165.624,115.763 168.451,110.989 168.808,110.459 C168.808,110.459 170.111,110.521 173.994,113.935 C175.845,115.561 177.201,114.492 177.089,113.843 C176.357,109.727 170.628,105.887 163.349,108.446 C156.717,110.78 154.708,117.409 154.708,117.409 L151.523,119.696 C152.708,113.843 151.433,110.55 151.433,110.55 C157.894,97.93 164.261,100.399 168.989,97.198 C174.594,93.405 178.636,94.456 178.636,94.456 C178.636,94.456 179.727,99.12 177.18,100.948 C177.18,100.948 179.267,100.759 182.729,101.405 C186.638,102.138 187.845,103.226 190.642,104.424 C195.96,106.701 200.105,106.526 202.56,106.161 C202.56,106.161 201.562,114.116 194.735,112.837 C194.735,112.837 195.917,114.848 196.007,119.056 C196.079,122.349 194.919,124.542 194.919,124.542 C194.919,124.542 195.827,126.919 198.194,125.822 C200.077,124.948 201.196,123.263 201.196,123.263 C203.107,129.39 201.286,134.966 195.827,135.791 C191.028,136.516 188.823,132.591 188.823,132.591 C188.823,132.591 185.548,137.254 180.181,138.718 C174.644,140.226 171.107,142.629 172.174,145.85 C172.992,148.317 177.089,148.502 177.089,145.393 C177.089,143.573 176.451,141.733 176.491,141.729" id="Fill-65" fill="#1A1919"></path>
            <path d="M102.157,125.305 C102.157,125.305 96.793,119.851 93.21,117.136 C87.297,112.653 86.146,117.866 86.873,120.794 C86.873,120.794 79.473,117.136 82.263,111.281 C83.642,108.39 88.359,108.05 92.028,111.099 C92.127,111.181 92.118,111.281 92.118,111.281 C92.118,111.281 91.12,109.087 93.908,106.039 C93.908,106.039 97.07,106.936 98.67,111.557 C99.64,114.36 100.033,116.494 100.033,116.494 C100.763,117.196 101.853,117.685 101.853,117.685 C101.853,117.685 101.458,115.685 103.127,114.087 C105.674,111.647 109.19,114.208 109.19,114.452 C109.19,114.452 105.794,117.136 107.614,120.794 C109.488,124.56 112.593,126.187 116.347,126.769 C125.81,128.229 130.327,108.355 123.777,95.461 C118.037,84.159 110.768,92.382 110.768,92.382 L106.281,92.017 C106.281,92.017 106.426,87.147 113.801,86.529 C122.534,85.798 128.871,93.083 131.602,100.948 C134.009,107.886 132.815,119.073 128.053,126.097 C123.383,132.985 114.954,136.188 102.157,125.305" id="Fill-66" fill="#1A1919"></path>
            <path d="M132.604,139.999 C132.604,139.999 134.274,143.792 135.422,146.305 C139.425,155.086 138.787,163.043 138.06,167.159 C138.06,167.159 142.182,167.374 143.276,164.565 C144.156,162.311 143.037,158.913 143.64,160.057 C145.702,163.958 144.427,167.889 144.975,172.28 C145.656,177.774 150.191,178.588 150.191,178.588 C150.191,178.588 150.794,175.571 150.067,170.817 C149.992,170.319 153.573,174.764 158.621,177.067 C162.503,178.833 167.596,177.309 173.782,180.907 C173.782,180.907 171.736,179.524 167.172,177.004 C162.531,174.442 158.982,168.774 157.103,166.944 C157.103,166.944 160.198,167.624 162.599,167.278 C167.188,166.622 167.051,163.288 167.051,163.288 C167.051,163.288 163.897,163.348 161.712,162.86 C159.713,162.415 156.3,161.213 154.708,158.379 C154.708,158.379 156.253,158.288 157.847,157.786 C160.768,156.864 160.711,153.805 160.711,153.805 C160.711,153.805 159.71,154.631 155.89,153.622 C152.988,152.858 148.981,150.917 147.249,147.907 C144.928,143.883 142.243,142.375 141.425,141.645 C141.425,141.645 137.879,141.645 135.969,140.181 C134.056,138.718 132.964,137.072 132.964,137.072 C132.964,137.072 132.964,139.479 132.604,139.999" id="Fill-67" fill="#FFFFFE"></path>
            <path d="M178.815,137.803 C178.784,137.834 180.726,137.162 182.545,136.064 C186.386,133.748 189.337,130.003 189.366,130.03 C189.823,130.396 189.64,133.32 193.827,134.145 C198.232,135.012 201.196,130.79 200.466,126.097 C200.462,126.067 199.071,127.985 196.403,127.62 C194.151,127.312 193.37,124.908 193.37,124.908 C193.37,124.908 194.372,123.079 194.556,119.421 C194.689,116.719 194.054,114.94 193.37,113.477 C192.689,112.013 191.872,110.916 190.96,109.544 C190.384,108.677 191.323,109.36 191.323,109.36 C192.583,110.55 193.675,110.976 193.675,110.976 C199.282,113.202 200.923,107.533 200.923,107.533 C199.648,107.624 197.499,107.714 195.601,107.396 C193.417,107.03 191.634,106.546 188.687,105.018 C185.868,103.555 184.185,102.55 179.042,102.229 C177.214,102.114 174.057,102.071 173.055,102.015 C171.962,101.954 170.081,102.138 170.081,102.138 C170.081,102.138 170.719,101.862 171.356,101.681 C171.994,101.497 172.765,101.537 174.327,101.223 C177.665,100.552 177.359,95.644 177.359,95.644 C173.238,95.156 171.013,98.817 164.895,100.399 C159.48,101.8 154.677,105.489 152.372,112.745 L152.07,119.329 C152.07,119.329 152.888,117.409 153.89,115.306 C154.892,113.202 156.74,110.514 160.531,108.173 C164.382,105.795 168.93,105.8 171.72,106.618 C176.087,107.897 177.316,110.597 177.998,111.739 C178.815,113.11 178.862,114.657 178.544,115.03 C176.357,117.593 174.1,116.734 172.539,114.94 C171.266,113.477 169.537,112.563 169.537,112.563 C168.625,114.483 168.081,117.044 169.9,119.604 C172.237,122.894 178.544,120.153 178.544,120.062 C178.544,120.062 178.544,121.067 177.543,122.714 C175.754,125.655 171.81,126.919 168.808,125.914 C166.112,125.011 162.982,125.043 162.986,125.091 C163.002,125.274 164.111,131.714 168.17,132.683 C173.54,133.963 179.695,130.671 182.729,128.11 C182.729,128.11 184.454,132.04 178.815,137.803" id="Fill-68" fill="#FFFFFE"></path>
            <path d="M172.084,101.497 C168.081,101.771 162.986,103.356 162.986,103.356 C162.986,103.356 171.72,101.954 173.903,101.954 C176.094,101.954 178.361,101.954 181.817,103.417 C185.718,105.068 187.722,107.319 188.913,110.55 C190.097,113.751 190.278,115.58 190.278,115.58 C190.278,115.58 190.368,113.477 189.46,110.366 C188.519,107.148 185.911,104.331 181.546,102.503 C179.736,101.745 177.453,101.405 177.453,101.405 C177.453,101.405 175.172,101.285 172.084,101.497" id="Fill-69" fill="#1A1919"></path>
            <path d="M176.268,138.533 C182.545,133.139 182.605,128.142 182.545,128.2 C177.207,133.811 171.81,133.963 171.81,133.963 C171.81,133.963 167.465,136.621 166.17,141.733 C164.864,146.905 167.061,151.672 171.356,152.799 C175.54,153.899 179.087,151.764 179.817,149.508 C181.089,145.575 178.271,143.747 178.271,143.747 C178.271,143.747 179.727,147.221 176.632,148.686 C174,149.93 170.355,148.778 170.628,144.387 C170.893,140.11 176.14,138.647 176.268,138.533" id="Fill-70" fill="#FFFFFE"></path>
            <path d="M103.612,115.185 C102.315,116.572 103.248,119.696 103.248,119.696 C103.248,119.696 101.853,119.239 100.579,118.415 C100.358,118.272 100.484,119.378 100.854,120.61 C101.1,121.44 101.853,123.385 101.853,123.385 C112.708,133.84 120.625,131.614 124.111,129.085 C128.224,126.101 132.42,117.317 131.508,107.259 C130.479,95.865 121.685,86.164 113.436,87.382 C108.838,88.063 107.129,91.529 107.129,91.529 L110.04,91.651 C110.04,91.651 112.685,88.807 115.134,88.693 C119.047,88.51 127.403,91.352 127.873,108.903 C128.143,119.147 123.504,132.011 112.222,126.524 C110.344,125.609 107.444,123.329 106.523,120.55 C105.553,117.624 106.402,116.159 107.614,114.696 C107.614,114.696 105.432,113.233 103.612,115.185" id="Fill-71" fill="#FFFFFE"></path>
            <path d="M198.376,170.358 C195.169,169.956 192.462,170.452 189.73,172.553 C189.386,172.823 191.978,173.895 191.978,173.895 C194.22,174.627 194.403,177.493 194.403,177.493 C194.403,177.493 190.823,178.346 188.642,177.86 C186.491,177.377 184.116,176.508 181.546,176.211 C179.422,175.967 176.937,177.004 176.937,177.004 C176.937,177.004 179.026,178.454 180.819,180.875 C183.547,184.565 180.455,187.795 180.455,187.795 C180.455,187.795 179.294,186.532 177.18,183.956 C175.322,181.696 173.854,180.766 169.474,177.432 C166.472,175.145 164.441,172.981 164.441,172.981 C168.081,172.676 171.356,172.553 175.238,169.323 C178.324,166.754 178.327,164.596 178.815,161.153 C179.12,159.018 180.544,156.184 180.544,156.184 C180.544,156.184 183.363,158.196 183.12,161.092 C182.875,164.04 182.274,165.51 180.999,166.762 C180.999,166.762 180.878,166.762 182.212,166.276 C183.547,165.786 185.931,163.342 186.638,161.946 C188.732,157.831 194.189,158.745 194.189,158.745 C194.189,158.745 194.282,160.483 191.917,162.403 C190.64,163.438 189.55,164.506 188.732,165.053 C188.732,165.053 191.097,164.047 197.253,163.836 C212.739,163.301 219.45,178.833 213.446,188.528 C213.382,188.629 214.392,183.344 210.958,178.346 C209.2,175.786 205.653,171.274 198.376,170.358" id="Fill-72" fill="#FFFFFE"></path>
            <path d="M202.105,197.002 C201.378,203.465 208.019,204.926 210.657,204.014 C213.976,202.862 214.72,199.622 213.749,197.307 C213.714,197.223 213.204,198.709 211.929,199.622 C210.581,200.59 208.038,200.639 207.107,198.891 C205.653,196.147 207.726,194.864 210.202,192.489 C213.505,189.321 213.483,188.342 213.474,188.284 C212.778,183.711 211.263,181.76 211.263,181.76 C210.534,184.961 206.562,194.135 197.921,191.94 C196.497,191.581 195.116,189.17 196.159,187.368 C197.009,185.905 198.587,185.663 198.587,185.663 C198.587,185.663 196.655,184.75 194.714,185.362 C192.314,186.116 190.823,187.979 190.823,190.112 C190.823,193.227 192.735,194.317 195.644,195.141 C195.644,195.141 193.827,196.606 191.825,198.663 C189.755,200.793 188.396,204.497 190.761,207.485 C193.089,210.43 197.575,209.84 198.774,207.17 C199.722,205.055 198.618,203.249 198.042,202.62 C198.042,202.62 198.021,202.532 198.042,202.62 C198.669,205.079 197.013,206.065 195.526,205.903 C194.403,205.78 193.519,204.645 193.675,203.555 C193.796,202.704 194.403,202.032 195.948,201.026 L202.105,197.002" id="Fill-73" fill="#FFFFFE"></path>
            <path d="M175.662,173.59 C175.662,173.59 179.422,173.59 183.062,172.004 C186.204,170.635 187.792,168.956 187.792,168.956 C187.792,168.956 185.853,170.053 182.697,171.032 C179.543,172.004 175.662,173.59 175.662,173.59" id="Fill-74" fill="#1A1919"></path>
            <path d="M190.462,119.649 C190.462,119.649 190.005,126.189 187.821,130.03 C185.765,133.652 184.819,134.693 181.089,137.162 L182.455,136.978 C182.455,136.978 185.644,135.468 187.821,131.675 C191.187,125.822 190.462,119.649 190.462,119.649" id="Fill-75" fill="#1A1919"></path>
            <path d="M136.423,141.096 C136.423,141.096 139.151,143.838 140.85,147.131 C142.069,149.495 144.61,153.715 144.61,153.715 C144.61,153.715 142.185,145.057 137.332,141.28 C136.722,140.801 136.423,141.096 136.423,141.096" id="Fill-76" fill="#1A1919"></path>
            <path d="M156.316,126.28 C159.137,121.433 158.453,118.063 157.408,116.221 C157.408,116.221 156.497,116.098 155.041,116.77 C153.809,117.337 152.797,117.989 152.797,117.989 C152.797,117.989 152.951,115.519 152.493,113.05 C151.849,109.54 150.067,107.214 150.067,107.214 C150.067,107.214 147.186,108.976 146.2,111.693 C145.475,113.705 145.258,114.845 145.245,115.123 C145.248,115.01 145.033,114.331 143.761,112.989 C143.037,112.226 141.762,111.464 141.762,111.464 C141.762,111.464 137.879,116.463 139.213,121.341 C139.961,124.079 139.272,128.597 135.089,128.169 C132.04,127.858 131.329,124.877 131.329,124.877 C132.663,126.707 134.42,126.769 134.42,126.769 C134.42,126.769 136.302,123.841 135.512,120.427 C134.806,117.37 132.544,115.864 131.57,113.11 C130.236,109.331 129.934,105.306 129.934,105.306 C129.934,105.306 130.538,86.169 121.928,86.042 C113.678,85.919 111.86,95.064 111.86,95.064 L117.318,95.186 C117.318,95.186 116.634,93.422 119.623,91.406 C124.871,87.87 127.051,97.442 122.322,109.271 C122.322,109.271 120.775,111.923 119.411,114.665 C119.411,114.665 117.529,117.593 117.044,121.433 C116.569,125.189 118.835,128.169 118.835,128.169 C118.835,128.169 120.867,127.193 121.595,126.189 C122.198,125.352 122.413,124.908 122.413,124.908 C122.413,124.908 122.564,126.189 122.474,129.39 C122.369,133.051 122.413,136.582 123.869,138.533 C124.961,139.999 126.871,140.637 126.871,140.637 C126.871,140.637 127.467,140.321 127.873,139.509 C128.115,139.022 128.316,138.372 128.295,138.229 C128.345,138.533 128.584,139.288 130.052,140.425 C131.633,141.645 132.48,142.071 132.48,142.071 C132.48,142.071 133.148,141.34 133.511,140.606 C134.056,139.517 133.935,138.78 133.935,138.78 C133.935,138.78 135.655,141.879 139.151,142.649 C142.336,143.35 145.702,142.192 145.702,142.192 C145.702,142.192 145.609,141.551 144.912,140.302 C144.564,139.681 143.914,138.901 143.55,138.595 C144.374,139.253 148.116,139.573 150.794,138.624 C157.255,136.34 156.132,130.853 156.132,130.853 C156.132,130.853 155.588,130.784 154.617,130.671 C153.586,130.546 152.919,130.546 152.919,130.546 C152.919,130.546 154.823,128.841 156.316,126.28" id="Fill-77" fill="#1A1919"></path>
            <path d="M130.51,114.392 C131.63,116.952 133.048,117.819 134.056,119.938 C135.391,122.745 133.876,125.426 133.876,125.426 C133.876,125.426 131.148,124.207 129.598,121.616 C129.598,121.616 129.527,124.58 130.843,126.646 C132.357,129.024 134.361,129.571 136.482,129.511 C139.758,129.419 141.332,124.519 140.517,121.708 C139.366,117.745 142.122,113.415 142.122,113.415 C142.122,113.415 143.737,114.046 144.427,116.708 C144.975,118.812 146.066,119.878 146.066,119.878 C146.066,119.878 145.882,116.403 146.975,113.02 C147.78,110.528 149.796,109.087 149.796,109.087 C149.796,109.087 150.943,111.181 151.404,112.989 C152.312,116.586 151.04,120.427 151.04,120.427 C151.28,121.159 151.955,120.362 153.827,118.843 C155.405,117.562 156.74,117.685 156.74,117.685 C156.74,117.685 157.71,119.97 156.344,123.263 C155.255,125.896 153.069,128.839 151.342,130.396 C150.586,131.073 149.529,132.106 150.251,131.95 C152.343,131.493 154.92,131.827 154.92,131.827 C154.798,133.108 154.313,135.608 151.221,137.193 C147.096,139.306 141.275,136.705 140.365,137.072 C140.365,137.072 140.29,137.088 140.365,137.133 C143.245,138.901 144.185,141.28 144.185,141.28 C144.185,141.28 141.245,142.153 139.151,141.551 C135.969,140.637 135.664,139.388 134.513,137.986 C133.665,136.954 132.839,136.166 132.842,136.157 C132.842,136.157 132.842,138.96 132.118,139.937 C132.118,139.937 129.873,139.634 128.722,136.157 C128.722,136.157 127.873,133.23 127.598,134.693 C127.598,134.693 127.325,137.986 126.596,138.901 C126.596,138.901 124.052,138.475 123.687,133.963 C123.321,129.481 124.233,125.914 123.08,122.927 C123.08,122.927 123.141,122.379 122.291,121.464 C122.291,121.464 121.928,125.609 119.259,126.401 C119.259,126.401 117.744,124.39 118.289,121.22 C118.725,118.687 120.775,115.03 120.775,115.03 C123.415,110.673 126.929,102.301 125.959,95.004 C125.415,90.889 123.687,89.974 122.413,89.791 C121.139,89.607 117.502,90.522 116.136,94.638 L113.134,94.546 C113.134,94.546 115.682,86.956 121.139,87.047 C126.596,87.138 128.78,94.546 128.871,102.046 C128.951,108.73 128.827,110.552 130.51,114.392" id="Fill-78" fill="#FFFFFE"></path>
            <path d="M135.21,133.047 C135.21,133.047 139.201,133.923 141.578,133.23 C149.432,130.944 148.521,121.433 148.521,121.433 C148.521,121.433 147.429,130.944 141.214,132.497 C138.361,133.213 135.21,133.047 135.21,133.047" id="Fill-79" fill="#1A1919"></path>
            <g id="Group-83" transform="translate(83.138587, 0.000000)">
                <mask id="mask-8" fill="white">
                    <use xlink:href="#path-7"></use>
                </mask>
                <g id="Clip-81"></g>
                <path d="M8.61641309,114.94 C2.52241309,111.647 2.52241309,118.599 2.52241309,118.599 C2.52241309,118.599 -1.45658691,115.699 0.580413092,112.013 C3.15741309,107.351 10.8904131,113.843 10.8904131,113.843 C10.8904131,113.843 8.70741309,110.55 11.1334131,107.38 C11.1334131,107.38 14.0754131,108.995 15.4394131,115.886 C16.3904131,120.692 18.8044131,123.476107 18.8044131,123.476107 C18.7144131,123.507 12.0684131,116.805 8.61641309,114.94" id="Fill-80" fill="#FFFFFE" mask="url(#mask-8)"></path>
                <path d="M46.4504131,42.795 C47.8604131,41.332 49.5334131,39.335 50.9174131,38.64 C53.2844131,37.451 54.6464131,37.633 54.6464131,37.633 C54.1034131,40.376 56.2864131,44.141 61.2884131,43.166 C61.3844131,43.148 65.3824131,44.035 67.9294131,41.292 C73.1534131,35.665 67.6554131,29.677 67.6554131,29.677 C67.6554131,29.677 72.2464131,28.577 72.5714131,23.458 C73.2054131,13.308 62.3794131,14.039 62.3794131,14.039 C62.3794131,14.039 64.4734131,12.21 63.3814131,8.553 C62.1324131,4.366 57.3784131,1.145 51.2814131,2.883 C45.1874131,4.62 42.8204131,9.925 42.8204131,9.925 C42.2764131,7.363 41.5484131,3.706 38.0004131,1.51 C34.4524131,-0.685 28.9044131,-0.501 26.3554131,2.15 C24.2124131,4.384 24.7174131,7.272 24.7174131,7.272 C22.4444131,7.363 17.5314131,6.998 15.2564131,10.93 C12.7804131,15.216 14.5294131,18.52 14.5294131,18.52 C14.5294131,18.52 12.7094131,18.703 10.6194131,20.99 C8.43841309,23.37 8.16141309,26.477 9.70741309,29.585 C10.4234131,31.022 11.7084131,32.33 14.1654131,31.689 C14.1654131,31.689 17.3504131,34.433 20.4424131,31.598 C22.6484131,29.577 21.4444131,27.026 21.4444131,27.026 C21.4444131,27.026 22.0794131,26.05 23.7184131,26.05 C25.7114131,26.05 26.1344131,31.329 25.3644131,35.505 C25.4304131,35.545 25.3404131,35.499 25.3404131,35.499 C25.3404131,35.499 23.8704131,36.079 23.2634131,38.579 C22.5794131,41.397 23.5374131,42.915 23.5374131,42.915 C23.5374131,42.915 22.5424131,42.997 22.2124131,45.943 C21.9294131,48.486 22.7914131,49.493 22.7914131,49.493 C22.7914131,49.493 21.5104131,50.654 21.0794131,53.834 C20.7594131,56.198 21.5124131,57.616 21.5124131,57.616 C21.5124131,57.616 20.4674131,58.008 19.9884131,61.044 C19.6324131,63.3 20.4424131,64.946 20.4424131,64.946 L34.0144131,69.494 C34.0144131,69.494 35.1574131,69.471 36.4534131,67.081 C37.5444131,65.068 36.9964131,62.959 36.9964131,62.959 C36.9964131,62.959 38.3544131,62.523 39.4674131,59.975 C40.7544131,57.026 40.4154131,55.449 40.4154131,55.449 C40.4154131,55.449 42.2294131,54.956 43.0044131,52.845 C43.6414131,51.107 43.2994131,49.477 43.2994131,49.477 C43.2994131,49.477 44.5724131,49.067 45.8254131,46.443 C46.9134131,44.157 46.4504131,42.795 46.4504131,42.795" id="Fill-82" fill="#1A1919" mask="url(#mask-8)"></path>
            </g>
            <path d="M109.41,35.66 C110.57,31.293 110.085,25.379 107.448,24.968 C105.878,24.723 104.082,25.471 103.581,26.522 C103.208,27.305 104.446,28.809 103.264,30.089 C102.343,31.085 100.67,31.873 98.759,31.232 C96.85,30.592 96.85,27.756 97.398,25.745 C97.398,25.745 96.212,27.116 96.122,28.214 C96.032,29.312 96.759,30.227 96.032,30.501 C95.303,30.775 92.574,28.397 93.21,24.922 C93.848,21.446 96.304,19.984 98.124,19.526 C98.124,19.526 98.487,20.258 99.397,20.99 C100.306,21.721 102.58,21.629 102.58,21.629 C102.58,21.629 103.503,22.862 105.432,22.085 C106.946,21.477 107.068,20.075 107.068,20.075 C110.647,21.477 112.505,26.401 110.616,35.889 L109.41,35.66" id="Fill-84" fill="#FFFFFE"></path>
            <path d="M113.461,36.529 C111.983,36.132 111.458,36.049 111.458,36.049 C112.845,28.961 113.377,21.721 107.494,18.855 C107.494,18.855 107.614,17.88 107.978,15.99 C108.319,14.223 110.464,14.284 111.92,16.112 C113.377,17.941 114.589,20.38 114.589,20.38 C114.589,20.38 113.967,16.432 111.177,14.359 C108.387,12.286 106.461,14.039 106.461,15.868 C106.461,17.087 106.098,20.746 104.446,21.035 C102.247,21.421 101.368,19.038 101.368,16.844 C101.368,16.844 100.883,19.648 101.488,20.258 C101.488,20.258 99.124,20.075 98.579,17.698 C97.977,15.081 98.376,13.112 99.669,11.205 C101.035,9.192 103.733,8.309 107.918,8.43 C107.918,8.43 108.104,9.942 109.13,10.656 C110.313,11.478 111.404,10.884 111.404,10.884 C111.404,10.884 111.86,12.028 113.315,12.119 C114.558,12.197 114.589,12.027 114.589,12.027 C114.589,12.027 117.012,13.591 117.803,19.343 C118.593,25.075 117.552,30.105 115.482,37.055 C115.482,37.055 114.935,36.926 113.461,36.529" id="Fill-85" fill="#FFFFFE"></path>
            <path d="M116.233,37.282 C116.233,37.282 117.41,33.617 118.41,28.793 C119.408,23.98 119.564,17.636 116.288,11.723 C116.063,11.317 117.56,9.909 118.835,12.698 C119.7,14.595 120.366,17.469 120.229,22.544 C120.211,23.274 120.593,23.55 120.683,20.99 C120.683,20.99 120.82,15.136 119.548,12.164 C118.354,9.383 116.863,7.821 116.409,7.821 C115.953,7.821 117.137,9.192 114.77,10.199 C112.405,11.205 110.456,10.06 112.315,5.078 C112.586,4.345 110.723,6.129 110.586,9.742 C110.569,10.207 107.845,9.428 109.085,5.032 C110.04,1.648 115.044,0.414 118.229,1.693 C121.412,2.974 124.323,4.985 124.687,12.028 C124.687,12.028 118.69,31.819 116.87,37.489 L116.233,37.282" id="Fill-86" fill="#FFFFFE"></path>
            <path d="M120.783,38.883 C118.729,38.125 117.623,37.74 117.623,37.74 C120.35,28.839 123.141,19.954 124.718,15.198 C126.963,8.421 132.703,2.041 139.758,3.919 C148.008,6.113 146.975,15.868 139.758,15.502 C134.7,15.246 135.792,11.479 135.606,10.335 C135.543,9.969 132.541,9.406 129.692,15.623 C126.839,21.843 124.233,29.464 123.869,30.623 C123.467,31.896 126.174,25.37 128.479,20.075 C131.023,14.222 133.21,12.393 134.24,12.027 C134.24,12.027 134.361,12.637 134.483,13.063 C134.725,13.917 134.784,14.1 134.784,14.1 C134.784,14.1 133.574,14.953 132.177,17.148 C130.576,19.67 128.901,23.185 128.901,23.185 C128.901,23.185 132.663,17.819 133.692,16.661 C134.725,15.502 135.512,15.198 135.512,15.198 C135.938,15.685 136.305,15.961 137.089,16.355 C137.939,16.782 138.485,16.722 138.485,16.722 C138.485,16.722 136.482,18.49 133.633,22.574 C130.784,26.66 126.855,34.539 124.239,40.232 C124.239,40.232 122.836,39.642 120.783,38.883" id="Fill-87" fill="#FFFFFE"></path>
            <path d="M125.104,40.621 C130.472,28.87 136.18,20.502 140.729,16.538 C140.729,16.538 141.563,16.462 142.791,15.915 C144.02,15.365 144.02,15.228 144.02,15.228 C144.02,15.228 147.338,14.588 150.567,16.234 C153.799,17.88 154.481,20.441 154.524,22.498 C154.524,22.498 153.843,21.813 153.206,21.539 C152.571,21.263 154.026,22.544 154.116,23.686 C154.207,24.831 153.706,25.882 153.253,26.385 C153.253,26.385 152.897,24.718 152.113,23.733 C151.75,23.275 152.427,24.693 152.477,25.928 C152.524,27.026 152.07,27.666 151.024,28.26 C150.384,28.622 148.247,29.312 145.475,27.666 C145.475,27.666 147.112,27.208 147.022,26.203 C146.991,25.884 145.382,27.528 143.746,26.339 C142.107,25.15 144.29,23.002 143.746,23.002 C143.199,23.002 140.423,22.864 137.652,25.06 C134.874,27.254 133.919,28.854 133.739,29.312 C133.558,29.769 136.84,26.634 138.149,25.699 C140.654,23.915 141.637,24.648 141.637,24.648 C141.319,25.698 141.456,26.278 142.548,26.964 C142.548,26.964 140.305,26.964 136.65,30.363 C131.764,34.91 127.651,41.786 127.651,41.786 L125.104,40.621" id="Fill-88" fill="#FFFFFE"></path>
            <path d="M128.584,42.268 C128.584,42.268 128.369,42.189 128.379,42.175 C131.909,37.586 135.633,32.506 137.879,30.684 C140.583,28.488 142.701,27.939 143.836,27.894 C143.836,27.894 144.686,29.033 146.52,29.495 C148.34,29.952 149.068,29.86 149.068,29.86 C149.068,29.86 152.86,33.14 152.07,36.766 C151.433,39.691 149.796,40.514 149.796,40.514 C149.796,40.514 150.16,39.326 149.933,38.091 C149.765,37.18 149.205,36.17 149.205,36.17 C149.205,36.17 149.476,38.227 149.068,39.691 C148.489,41.764 147.385,42.344 146.066,41.977 C145.671,41.868 147.155,40.923 147.385,37.909 C147.565,35.53 146.383,33.518 144.156,32.284 C144.156,32.284 147.065,35.53 146.336,38.273 C145.609,41.017 144.667,41.908 143.425,42.252 C142.107,42.617 141.151,41.794 141.789,40.697 C142.331,39.765 142.48,39.305 142.243,38.913 C141.97,38.456 140.881,41.657 139.789,40.559 C138.346,39.111 140.06,36.4 139.605,35.21 C139.151,34.021 137.941,33.941 136.56,34.479 C134.557,35.255 128.584,42.268 128.584,42.268" id="Fill-89" fill="#FFFFFE"></path>
            <path d="M137.575,35.439 C138.666,35.439 138.06,36.719 138.06,36.719 C138.06,36.719 137.969,36.353 136.788,36.536 C135.606,36.719 133.421,37.999 133.421,37.999 C133.421,37.999 135.826,35.439 137.575,35.439" id="Fill-90" fill="#FFFFFE"></path>
            <path d="M108.857,36.75 C107.764,37.969 106.946,39.341 107.918,42.45 C107.918,42.45 110.449,42.369 116.893,44.645 C123.626,47.023 125.747,48.425 125.747,48.425 C127.689,46.961 128.416,45.436 128.143,43.607 C128.143,43.607 125.987,41.885 118.593,39.31 C111.678,36.902 108.857,36.75 108.857,36.75" id="Fill-91" fill="#FFFFFE"></path>
            <path d="M107.735,43.548 C106.595,44.645 106.158,46.26 107.009,48.852 C107.009,48.852 109.404,48.47 115.001,50.551 C120.943,52.761 122.959,54.399 122.959,54.399 C124.871,53.119 125.172,51.991 125.02,49.461 C125.02,49.461 123.268,48.071 116.409,45.681 C109.993,43.446 107.735,43.548 107.735,43.548" id="Fill-92" fill="#FFFFFE"></path>
            <path d="M107.19,50.07 C106.182,51.167 104.921,54.429 105.674,57.021 C105.674,57.021 107.674,56.533 112.723,58.438 C118.077,60.459 119.623,61.837 119.623,61.837 C121.312,60.557 122.242,57.844 122.109,55.314 C122.109,55.314 120.457,53.867 114.726,51.672 C109.034,49.492 107.19,50.07 107.19,50.07" id="Fill-93" fill="#FFFFFE"></path>
            <path d="M105.917,58.118 C104.598,59.261 103.673,61.685 104.583,64.337 C104.583,64.337 106.832,65.079 110.586,66.349 C115.044,67.857 116.893,68.3 116.893,68.3 C118.584,67.019 119.138,65.16 118.955,62.874 C118.955,62.874 118.273,61.761 112.708,59.764 C107.362,57.846 105.917,58.118 105.917,58.118" id="Fill-94" fill="#FFFFFE"></path>
            <path d="M142.122,72.018 C142.339,72.683 142.959,74.463 141.941,78.117 C141.319,80.344 140.06,84.884 133.966,87.047 C133.313,87.278 133.014,87.445 132.357,87.565 C134.028,89.122 136.473,88.225 139.636,88.602 C143.217,89.028 143.973,92.169 143.973,92.169 C143.973,92.169 141.97,91.651 139.699,92.2 C137.425,92.748 136.544,93.419 136.544,93.419 C140.365,93.479 141.88,96.04 142.365,97.991 C142.943,100.31 142.064,101.771 142.064,101.771 C142.064,101.771 141.82,100.856 140.669,100.126 C138.841,98.965 136.482,99.882 136.482,99.882 C136.482,99.882 136.718,101.632 137.939,103.112 C139.394,104.88 141.151,105.125 141.88,107.38 C142.881,110.479 140.122,112.563 140.122,112.563 C140.122,112.563 139.82,110.976 139.151,110.429 C138.193,109.642 136.788,109.91 136.788,109.91 C136.788,109.91 136.831,110.207 137.211,112.502 C137.575,114.696 136.725,116.279 135.241,117.685 C135.241,117.685 134.693,116.311 133.057,115.214 C131.549,114.202 131.148,113.11 131.148,113.11 C131.054,115.946 128.357,119.819 128.357,119.819 C128.357,119.819 126.417,117.317 125.051,115.946 C123.687,114.574 122.322,113.202 122.322,113.202 C121.685,115.03 121.503,118.78 121.503,118.78 C121.503,118.78 117.044,115.763 115.134,113.477 C113.715,111.78 112.83,109.696 112.83,109.696 C112.222,110.733 108.403,113.751 108.403,113.751 C108.403,113.751 106.978,111.983 106.128,109.91 C105.383,108.092 104.583,105.978 104.583,105.978 C102.278,107.929 99.852,109.392 99.852,109.392 C99.852,109.392 97.002,107.015 97.123,104.087 C97.21,101.946 97.487,101.405 97.759,100.674 C94.605,100.368 92.392,100.033 88.844,98.569 C83.902,96.534 77.928,95.735 78.139,94.577 C78.379,93.278 82.531,92.486 86.025,93.175 C90.662,94.089 93.666,94.546 93.666,94.546 C92.666,93.54 88.011,90.08 80.951,89.252 C74.562,89.242 75.152,93.129 74.633,93.22 C74.38,93.311 72.331,91.727 71.286,88.418 C70.171,84.89 71.617,80.699 73.47,79.183 C77.381,75.982 85.296,77.171 85.296,77.171 C83.719,76.256 83.113,73.146 88.693,68.849 C88.693,68.849 90.3,68.711 96.713,70.082 C103.127,71.456 106.636,72.525 111.768,74.153 C116.818,75.753 120.164,76.859 120.164,76.859 C121.879,76.079 124.562,76.763 128.871,76.531 C133.966,76.256 137.03,75.494 139.213,74.213 C141.351,72.961 142.122,72.018 142.122,72.018" id="Fill-95" fill="#1A1919"></path>
            <path d="M141.275,74.213 C140.915,74.68 140.405,75.035 139.636,75.494 C137.696,76.653 135.606,77.537 129.055,77.628 C123.135,77.711 121.503,77.811 120.411,78.726 C119.319,79.64 118.773,80.463 118.773,80.463 C118.773,80.463 117.681,79.092 119.319,77.445 C119.319,77.445 116.773,76.12 110.723,74.199 C104.672,72.278 103.315,72.235 96.94,70.8 C91.12,69.489 89.664,69.671 89.664,69.671 C87.992,70.972 86.991,71.657 86.084,73.727 C85.175,75.799 86.084,76.591 87.301,77 C88.377,77.361 89.641,75.769 92.938,76.896 C95.969,77.934 99.912,79.975 99.912,79.975 C99.912,79.975 99.579,80.248 97.061,80.008 C96.912,79.993 96.769,79.965 96.596,79.941 C96.286,80.364 95.226,81.729 93.927,82.184 C92.385,82.725 90.488,83.064 88.97,81.714 C87.878,80.742 88.003,79.446 88.153,78.795 C87.507,78.728 86.965,78.603 86.504,78.439 C83.296,78.373 78.226,77.634 74.85,79.947 C72.97,81.234 71.696,84.436 72.552,87.678 C73.165,89.998 74.108,91.071 74.108,91.071 C74.108,91.071 75.678,87.786 80.747,88.053 C84.025,88.226 87.156,89.187 92.149,92.26 C95.272,94.183 96.396,95.735 96.396,95.735 C96.396,95.735 90.846,95.461 86.752,94.546 C82.226,93.535 79.838,94.546 79.838,94.546 C79.838,94.546 84.541,95.644 89.542,97.505 C93.392,98.935 99.307,100.033 104.399,99.027 C104.519,99.003 104.399,99.12 104.399,99.12 C104.399,99.12 104.583,100.491 99.124,100.583 C97.244,105.124 99.973,107.441 99.973,107.441 C104.461,105.002 107.068,101.345 107.068,101.345 C106.946,102.929 105.706,104.362 105.734,104.454 C106.838,107.925 108.437,111.442 108.676,111.281 C110.04,110.366 110.961,109.438 112.103,107.745 C113.377,105.855 113.801,103.233 113.801,103.233 C114.347,103.874 115.101,103.646 114.833,104.393 C114.347,105.733 113.619,107.868 113.862,108.661 C115.035,112.495 120.503,116.311 120.503,116.311 C120.683,111.464 121.776,111.281 121.776,111.281 C124.323,113.384 128.236,117.866 128.236,117.866 C131.023,114.025 128.236,105.368 128.236,105.368 C130.784,108.355 130.411,109.995 132.42,112.471 C134.028,114.452 135.27,115.366 135.27,115.366 C135.27,115.366 136.258,113.534 135.695,111.647 C135.148,109.817 135.241,108.813 135.241,108.813 C138.971,107.686 140.669,110.063 140.669,110.063 C142.122,106.771 137.484,105.398 136.482,103.844 C135.484,102.289 135.058,100.033 135.058,100.033 C134.15,100.308 133.876,101.04 130.51,100.674 C127.144,100.308 126.961,97.93 126.961,97.93 C126.961,97.93 127.962,99.027 129.782,99.394 C131.602,99.759 133.328,99.027 135.512,98.204 C137.696,97.382 140.881,98.388 140.881,98.388 C140.881,98.388 140.837,96.127 137.696,94.912 C135.331,93.997 133.269,94.577 133.269,94.577 C135.695,90.554 141.335,90.706 141.335,90.706 C139.515,89.425 138.149,90.248 134.604,89.974 C131.68,89.748 130.669,88.129 130.6,87.596 C127.543,87.527 123.911,86.603 123.415,86.042 C123.415,86.042 124.961,86.407 127.779,86.499 C130.6,86.589 134.513,86.407 137.696,83.024 C139.754,80.836 141.285,78.045 141.275,74.213" id="Fill-96" fill="#FFFFFE"></path>
            <path d="M89.844,58.561 C88.979,58.424 86.569,60.481 89.071,62.538 L88.57,65.418 C88.57,65.418 86.706,65.968 86.661,67.339 C86.616,68.711 87.6,69.274 87.6,69.274 C87.6,69.274 88.889,69.596 89.209,69.641 C89.527,69.687 94.38,70.113 104.127,72.75 C114.042,75.433 119.729,77.949 120.411,78.177 L120.958,78.131 C120.958,78.131 124.914,77.171 126.596,77.308 C128.279,77.445 131.646,77.079 131.646,77.079 L131.148,75.708 C132.056,75.022 133.101,74.016 131.872,72.369 C131.872,72.369 125.505,68.437 113.815,64.276 C102.126,60.115 92.165,58.926 89.844,58.561" id="Fill-97" fill="#1A1919"></path>
            <path d="M90.662,62.768 C90.662,62.768 97.123,63.636 108.086,66.882 C119.047,70.129 128.597,74.473 128.597,74.473 L127.372,76.988 C127.372,76.988 119,73.009 107.494,69.9 C95.985,66.79 93.574,66.471 90.982,66.196 L90.662,62.768" id="Fill-98" fill="#FFFFFE"></path>
            <path d="M80.839,81.56 C80.839,81.56 79.147,80.981 79.725,80.034 C80.383,78.954 82.295,79.275 83.703,79.686 C85.113,80.097 86.341,81.103 86.341,81.103 C86.341,81.103 82.657,79.457 81.384,80.235 C80.516,80.765 80.839,81.56 80.839,81.56" id="Fill-99" fill="#1A1919"></path>
            <path d="M120.048,84.762 C120.048,84.762 118.863,81.743 124.233,81.103 C129.598,80.463 135.876,79.457 137.879,77.993 C137.879,77.993 137.425,79.275 135.331,80.097 C133.238,80.92 126.78,82.019 124.323,82.566 C121.867,83.115 121.685,83.847 121.685,83.847 L123.504,84.396 C123.504,84.396 120.683,84.853 120.048,84.762" id="Fill-100" fill="#1A1919"></path>
            <path d="M114.042,64.946 C112.708,63.301 112.164,61.714 112.164,61.714 C112.164,61.714 111.799,62.264 108.888,63.057 C105.703,63.924 102.943,63.057 101.248,61.655 C101.248,61.655 99.973,60.374 99.593,59.855 C99.084,59.156 98.84,58.453 98.84,58.453 C97.685,59.66 96.32,60.506 94.809,60.715 C91.157,61.219 87.216,58.121 85.334,52.115 C83.923,53.109 81.974,53.042 80.627,51.845 C80.55,51.778 80.48,51.705 80.409,51.633 C79.016,50.544 77.698,50.099 77.698,50.099 L77.656,50.045 C77.656,50.045 78.862,48.984 79.759,47.227 L79.764,47.223 C79.906,46.946 80.08,46.679 80.295,46.437 C80.774,45.889 81.368,45.535 82.014,45.334 C81.654,44.111 81.901,42.755 82.801,41.728 C82.871,41.652 82.942,41.581 83.015,41.511 C84.098,40.11 84.541,38.785 84.541,38.785 L84.594,38.742 C84.594,38.742 85.651,39.955 87.398,40.857 L87.402,40.861 C87.68,41.004 87.942,41.178 88.185,41.394 C88.907,42.036 89.337,42.881 89.45,43.773 C90.599,43.519 91.857,43.79 92.802,44.632 C92.88,44.7 92.952,44.773 93.02,44.846 C94.414,45.934 95.733,46.379 95.733,46.379 L95.775,46.433 C95.775,46.433 94.568,47.494 93.67,49.25 L93.666,49.256 C93.525,49.532 93.35,49.797 93.135,50.041 C92.47,50.8 91.558,51.231 90.631,51.32 C91.092,53.16 92.056,54.443 93.294,54.56 C95.151,54.735 96.921,52.238 97.366,48.9 L97.352,48.935 C96.688,47.897 96.663,46.516 97.4,45.43 C98.383,43.983 100.346,43.611 101.785,44.6 C103.223,45.588 103.594,47.561 102.612,49.007 C102.415,49.297 102.169,49.563 101.905,49.765 C101.46,53.328 103.292,56.513 106.014,56.858 C107.703,57.072 109.328,56.165 110.43,54.581 C108.891,54.345 107.509,53.32 106.935,51.807 C106.894,51.702 106.862,51.596 106.833,51.488 C106.024,49.711 104.95,48.577 104.95,48.577 L104.937,48.504 C104.937,48.504 106.699,48.165 108.526,47.008 L108.534,47.005 C108.823,46.822 109.137,46.669 109.479,46.556 C110.359,46.268 111.277,46.277 112.12,46.527 L112.12,46.51 C112.412,45.166 113.398,44.015 114.84,43.543 C114.948,43.508 115.059,43.481 115.169,43.454 C116.988,42.73 118.164,41.705 118.164,41.705 L118.17,41.699 C118.17,41.699 118.608,43.199 119.707,44.829 C119.781,44.913 119.857,44.998 119.928,45.088 C120.854,46.296 121.022,47.806 120.509,49.08 L120.502,49.095 C121.336,49.367 122.099,49.879 122.665,50.616 C122.884,50.902 123.057,51.207 123.193,51.521 L123.197,51.528 C124.058,53.52 125.324,54.8 125.324,54.8 L125.272,54.853 C125.272,54.853 123.748,55.181 122.081,56.189 C121.999,56.26 121.912,56.33 121.818,56.394 C120.495,57.318 118.781,57.382 117.378,56.705 C117.397,58.637 118.231,60.307 119.747,61.088 C122.186,62.346 125.489,60.754 127.12,57.56 C127.013,57.245 126.961,56.884 126.961,56.533 C126.961,54.781 128.373,53.362 130.115,53.362 C131.857,53.362 133.269,54.781 133.269,56.533 C133.269,57.848 132.476,58.975 131.344,59.456 L131.353,59.418 C129.85,62.428 129.906,65.493 131.539,66.4 C132.628,67.006 134.143,66.494 135.556,65.235 C134.84,64.635 134.33,63.761 134.206,62.759 C134.166,62.436 134.171,62.119 134.209,61.81 L134.209,61.803 C134.452,59.844 134.053,58.282 134.053,58.282 L134.116,58.263 C134.116,58.263 135.453,58.643 137.216,58.534 C137.313,58.513 137.413,58.493 137.515,58.48 C138.769,58.322 139.961,58.811 140.766,59.673 C141.359,58.999 142.19,58.545 143.145,58.425 C143.466,58.384 143.784,58.391 144.088,58.428 L144.097,58.427 C146.044,58.673 147.597,58.27 147.597,58.27 L147.618,58.336 C147.618,58.336 147.243,59.681 147.348,61.451 C147.369,61.55 147.389,61.649 147.4,61.752 C147.572,63.111 147.015,64.371 146.029,65.177 C146.452,65.709 146.745,66.338 146.835,67.061 C146.876,67.384 146.869,67.702 146.829,68.01 L146.832,68.018 C146.589,69.978 146.987,71.538 146.987,71.538 L146.922,71.558 C146.922,71.558 145.584,71.179 143.824,71.287 C143.724,71.309 143.625,71.328 143.525,71.34 C141.739,71.565 140.09,70.515 139.487,68.894 C134.56,72.787 129.57,73.112 126.836,70.626 C125.704,69.596 125.054,68.124 124.777,66.471 C124.777,66.471 124.186,66.928 123.368,67.203 C122.55,67.476 121.321,67.659 121.321,67.659 C118.41,67.811 115.586,66.852 114.042,64.946" id="Fill-101" fill="#1A1919"></path>
            <path d="M112.735,59.487 C113.488,63.005 115.934,65.723 119.228,66.342 C121.623,66.79 124.005,66.01 125.891,64.396 L125.894,64.458 C125.875,66.625 126.447,68.681 127.873,69.9 C130.327,72.004 134.924,71.241 139.089,67.68 C139.145,67.632 139.201,67.584 139.253,67.536 L139.326,67.468 C139.468,67.345 139.655,67.271 139.858,67.271 C140.278,67.271 140.629,67.61 140.675,68.021 C140.837,69.272 141.976,70.141 143.245,69.947 C143.31,69.937 143.373,69.924 143.431,69.909 C144.523,69.811 145.345,70.023 145.345,70.023 L145.386,70.009 C145.386,70.009 145.164,69.053 145.348,67.838 L145.348,67.833 C145.376,67.642 145.386,67.446 145.366,67.247 C145.311,66.66 145.04,66.156 144.642,65.8 L144.508,65.659 C144.337,65.482 144.228,65.234 144.228,64.962 C144.228,64.573 144.437,64.248 144.751,64.091 C145.528,63.637 145.998,62.757 145.879,61.801 C145.871,61.739 145.858,61.678 145.845,61.619 C145.78,60.544 146.01,59.729 146.01,59.729 L145.998,59.689 C145.998,59.689 145.056,59.933 143.874,59.784 L143.868,59.785 C143.684,59.761 143.491,59.758 143.294,59.783 C142.442,59.891 141.749,60.451 141.44,61.196 C141.27,61.413 141.008,61.549 140.722,61.549 C140.436,61.549 140.178,61.412 140.006,61.195 C139.942,61.112 139.888,61.022 139.83,60.928 C139.36,60.235 138.554,59.796 137.652,59.922 C137.59,59.931 137.528,59.945 137.468,59.958 C136.379,60.041 135.556,59.82 135.556,59.82 L135.519,59.834 C135.519,59.834 135.748,60.793 135.58,62.003 L135.58,62.008 C135.556,62.199 135.546,62.394 135.571,62.594 C135.643,63.264 136.022,63.854 136.52,64.219 C136.769,64.359 136.967,64.655 136.967,64.962 C136.967,65.219 136.872,65.434 136.691,65.585 C134.809,67.479 132.598,68.26 131.004,67.372 C128.799,66.145 128.652,62.169 130.678,58.491 C130.7,58.449 130.697,58.425 130.721,58.385 C131.558,58.145 132.143,57.417 132.143,56.533 C132.143,55.456 131.235,54.583 130.115,54.583 C128.995,54.583 128.087,55.456 128.087,56.533 C128.087,56.882 128.19,57.193 128.357,57.476 C128.267,57.683 128.177,57.872 128.075,58.076 C126.09,61.961 122.077,63.871 119.107,62.339 C117.015,61.26 116,58.759 116.278,56.015 L116.294,55.877 C116.343,55.5 116.664,55.207 117.053,55.207 C117.219,55.207 117.358,55.251 117.484,55.342 C118.519,56.112 119.959,56.181 121.053,55.432 C121.119,55.386 121.181,55.338 121.241,55.289 C122.421,54.589 123.494,54.37 123.494,54.37 L123.531,54.333 C123.531,54.333 122.657,53.419 122.077,52.003 L122.073,51.998 C121.982,51.775 121.863,51.558 121.713,51.352 C121.21,50.673 120.468,50.254 119.684,50.13 L119.76,50.14 C119.333,50.14 118.984,49.802 118.984,49.385 C118.984,49.238 119.028,49.102 119.103,48.986 L119.099,49.003 C119.691,48.046 119.645,46.784 118.873,45.801 C118.823,45.738 118.771,45.677 118.717,45.619 C117.929,44.475 117.652,43.47 117.652,43.47 C117.652,43.47 116.836,44.169 115.541,44.667 C115.464,44.686 115.386,44.704 115.31,44.728 C114.123,45.103 113.375,46.119 113.327,47.245 L113.333,47.229 C113.33,47.366 113.289,47.504 113.207,47.625 C112.974,47.969 112.499,48.052 112.145,47.81 L112.213,47.845 C111.495,47.501 110.648,47.428 109.849,47.704 C109.612,47.787 109.392,47.9 109.19,48.032 L109.185,48.035 C107.913,48.874 106.678,49.134 106.678,49.134 L106.689,49.186 C106.689,49.186 107.451,49.975 108.032,51.222 C108.055,51.297 108.079,51.372 108.107,51.446 C108.592,52.687 109.817,53.444 111.106,53.396 C111.258,53.392 111.398,53.435 111.537,53.53 C111.859,53.75 111.96,54.173 111.787,54.513 L111.721,54.634 C110.415,57.058 108.174,58.549 105.839,58.255 C102.53,57.836 100.287,53.984 100.828,49.65 C100.857,49.422 100.888,49.216 100.931,48.996 C101.226,48.856 101.486,48.657 101.682,48.369 C102.286,47.479 102.026,46.245 101.1,45.609 C100.173,44.974 98.934,45.179 98.33,46.068 C97.836,46.799 97.91,47.732 98.468,48.405 C98.464,48.451 98.449,48.469 98.445,48.516 C98.053,52.703 95.702,55.904 93.191,55.667 C91.378,55.495 89.988,53.597 89.5,50.968 C89.434,50.739 89.474,50.506 89.621,50.294 C89.792,50.041 90.124,49.911 90.407,49.934 C91.021,49.916 91.667,49.643 92.103,49.131 C92.233,48.979 92.336,48.815 92.421,48.641 L92.424,48.638 C92.964,47.543 93.695,46.883 93.695,46.883 L93.669,46.849 C93.669,46.849 92.865,46.566 92.012,45.878 C91.97,45.833 91.928,45.789 91.88,45.745 C91.207,45.129 90.295,45.037 89.518,45.341 C89.416,45.385 89.324,45.429 89.22,45.461 C88.961,45.543 88.671,45.511 88.435,45.348 C88.197,45.185 88.058,44.924 88.037,44.65 C88.2,43.86 87.942,43.003 87.298,42.43 C87.15,42.3 86.99,42.194 86.823,42.108 L86.82,42.105 C85.761,41.558 85.119,40.821 85.119,40.821 L85.088,40.847 C85.088,40.847 84.82,41.651 84.162,42.5 C84.117,42.543 84.074,42.587 84.033,42.633 C83.401,43.355 83.292,44.348 83.681,45.165 C83.853,45.471 83.841,45.855 83.621,46.178 C83.469,46.404 83.244,46.546 83.001,46.596 L82.811,46.636 C82.282,46.705 81.778,46.969 81.4,47.42 C81.275,47.574 81.17,47.742 81.088,47.915 L81.085,47.918 C80.556,49.026 79.838,49.691 79.838,49.691 L79.862,49.726 C79.862,49.726 80.658,50.016 81.505,50.715 C81.547,50.762 81.59,50.808 81.637,50.851 C82.578,51.734 84.006,51.66 84.843,50.719 C85.11,50.406 85.59,50.326 85.937,50.564 C86.105,50.678 86.217,50.846 86.267,51.029 L86.286,51.124 C86.304,51.195 86.323,51.266 86.341,51.336 C87.783,56.639 91.152,59.875 94.361,59.53 C96.221,59.331 97.846,57.956 99.045,56.156 L99.084,56.106 C99.736,58.509 101.265,60.503 103.497,61.492 C106.545,62.839 110.123,61.921 112.735,59.487" id="Fill-102" fill="#FFFFFE"></path>
            <path d="M142.607,64.825 C142.607,66.003 141.658,66.959 140.486,66.959 C139.313,66.959 138.364,66.003 138.364,64.825 C138.364,63.646 139.313,62.691 140.486,62.691 C141.658,62.691 142.607,63.646 142.607,64.825" id="Fill-103" fill="#1A1919"></path>
            <path d="M141.711,64.825 C141.711,65.505 141.16,66.056 140.486,66.056 C139.811,66.056 139.26,65.505 139.26,64.825 C139.26,64.145 139.811,63.594 140.486,63.594 C141.16,63.594 141.711,64.145 141.711,64.825" id="Fill-104" fill="#FFFFFE"></path>
            <path d="M117.196,51.412 C117.196,52.591 116.246,53.546 115.075,53.546 C113.902,53.546 112.952,52.591 112.952,51.412 C112.952,50.233 113.902,49.278 115.075,49.278 C116.246,49.278 117.196,50.233 117.196,51.412" id="Fill-105" fill="#1A1919"></path>
            <path d="M116.299,51.412 C116.299,52.092 115.75,52.643 115.075,52.643 C114.397,52.643 113.849,52.092 113.849,51.412 C113.849,50.732 114.397,50.181 115.075,50.181 C115.75,50.181 116.299,50.732 116.299,51.412" id="Fill-106" fill="#FFFFFE"></path>
            <path d="M88.813,47.936 C88.813,49.116 87.863,50.07 86.69,50.07 C85.517,50.07 84.568,49.116 84.568,47.936 C84.568,46.759 85.517,45.803 86.69,45.803 C87.863,45.803 88.813,46.759 88.813,47.936" id="Fill-107" fill="#1A1919"></path>
            <path d="M87.916,47.936 C87.916,48.617 87.368,49.169 86.69,49.169 C86.013,49.169 85.466,48.617 85.466,47.936 C85.466,47.258 86.013,46.706 86.69,46.706 C87.368,46.706 87.916,47.258 87.916,47.936" id="Fill-108" fill="#FFFFFE"></path>
            <path d="M87.767,65.13 C88.196,65.465 89.123,66.413 89.838,67.019 C90.486,67.568 91.257,67.166 91.781,66.897 C92.492,66.532 92.944,66.27 93.334,66.044 C94.176,65.556 93.785,64.825 93.075,64.154 C92.351,63.472 91.844,62.996 91.328,62.447 C90.811,61.898 89.993,61.884 89.385,62.203 C88.57,62.629 87.844,62.859 87.314,63.301 C86.823,63.71 86.99,64.52 87.767,65.13" id="Fill-109" fill="#1A1919"></path>
            <path d="M92.041,64.581 C92.041,65.497 91.3,66.239 90.389,66.239 C89.48,66.239 88.74,65.497 88.74,64.581 C88.74,63.665 89.48,62.923 90.389,62.923 C91.3,62.923 92.041,63.665 92.041,64.581" id="Fill-110" fill="#FFFFFE"></path>
            <path d="M96.803,66.897 C97.233,67.233 98.159,68.182 98.875,68.788 C99.522,69.337 100.293,68.935 100.815,68.665 C101.528,68.3 101.981,68.039 102.371,67.811 C103.211,67.324 102.823,66.593 102.111,65.922 C101.388,65.24 100.881,64.764 100.364,64.216 C99.845,63.667 99.005,63.605 98.421,63.971 C97.721,64.412 97.192,64.581 96.352,65.068 C95.799,65.388 96.029,66.288 96.803,66.897" id="Fill-111" fill="#1A1919"></path>
            <path d="M101.077,66.349 C101.077,67.265 100.338,68.007 99.428,68.007 C98.517,68.007 97.776,67.265 97.776,66.349 C97.776,65.434 98.517,64.691 99.428,64.691 C100.338,64.691 101.077,65.434 101.077,66.349" id="Fill-112" fill="#FFFFFE"></path>
            <path d="M107.538,69.581 C107.967,69.916 108.894,70.864 109.609,71.47 C110.257,72.018 111.028,71.617 111.552,71.348 C112.263,70.982 112.714,70.721 113.106,70.495 C113.947,70.007 113.559,69.274 112.845,68.605 C112.123,67.923 111.616,67.446 111.098,66.897 C110.58,66.349 109.74,66.288 109.156,66.654 C108.456,67.095 107.926,67.263 107.085,67.751 C106.534,68.071 106.763,68.97 107.538,69.581" id="Fill-113" fill="#1A1919"></path>
            <path d="M111.812,69.031 C111.812,69.947 111.072,70.69 110.162,70.69 C109.25,70.69 108.511,69.947 108.511,69.031 C108.511,68.117 109.25,67.373 110.162,67.373 C111.072,67.373 111.812,68.117 111.812,69.031" id="Fill-114" fill="#FFFFFE"></path>
            <path d="M117.607,73.056 C118.033,73.391 118.962,74.339 119.677,74.945 C120.326,75.494 121.095,75.092 121.62,74.823 C122.33,74.457 122.783,74.196 123.172,73.97 C124.015,73.482 123.626,72.75 122.914,72.08 C122.189,71.397 121.684,70.921 121.168,70.373 C120.647,69.824 119.807,69.763 119.225,70.129 C118.522,70.57 117.996,70.738 117.153,71.226 C116.603,71.545 116.829,72.446 117.607,73.056" id="Fill-115" fill="#1A1919"></path>
            <path d="M121.878,72.506 C121.878,73.423 121.141,74.165 120.229,74.165 C119.317,74.165 118.581,73.423 118.581,72.506 C118.581,71.591 119.317,70.849 120.229,70.849 C121.141,70.849 121.878,71.591 121.878,72.506" id="Fill-116" fill="#FFFFFE"></path>
            <path d="M132.805,77.383 C133.138,77.232 132.48,76.611 132.071,76.225 C131.347,75.544 130.843,75.068 130.324,74.519 C129.807,73.97 128.964,73.91 128.382,74.274 C127.679,74.716 127.154,74.885 126.311,75.372 C125.76,75.692 125.99,76.591 126.764,77.201 C126.905,77.31 127.097,77.486 127.319,77.693 C127.319,77.693 132.404,77.565 132.805,77.383" id="Fill-117" fill="#1A1919"></path>
            <path d="M131.023,76.348 C130.964,75.494 130.298,74.995 129.387,74.995 C128.476,74.995 127.751,75.738 127.751,76.531 C127.751,76.531 128.174,76.531 129.328,76.531 C130.479,76.531 131.023,76.348 131.023,76.348" id="Fill-118" fill="#FFFFFE"></path>
            <path d="M123.641,76.502 C120.027,75.015 114.844,73.065 108.585,71.226 C96.759,67.751 90.363,66.895 89.542,66.836 C88.267,66.745 87.753,68.086 89.209,68.361 C90.286,68.564 96.032,69.091 108.22,72.658 C113.003,74.059 117.125,75.492 120.407,76.742 C120.407,76.742 120.935,76.587 121.481,76.518 C122.027,76.449 123.641,76.502 123.641,76.502" id="Fill-119" fill="#FFFFFE"></path>
            <path d="M90.056,61.776 C91.134,61.979 96.881,62.508 109.069,66.075 C121.26,69.641 129.157,73.429 129.81,73.848 C130.812,74.488 131.63,73.116 130.084,72.384 C129.237,71.984 121.26,68.118 109.434,64.642 C97.609,61.166 91.213,60.311 90.389,60.252 C89.117,60.161 88.6,61.502 90.056,61.776" id="Fill-120" fill="#FFFFFE"></path>
            <path d="M125.76,69.294 C125.269,68.466 124.952,67.503 124.777,66.471 C124.777,66.471 124.186,66.928 123.368,67.203 C122.768,67.404 121.943,67.557 121.548,67.623 L121.551,67.608 C123.15,68.22 124.566,68.791 125.773,69.297 L125.76,69.294" id="Fill-121" fill="#FFFFFE"></path>
            <path d="M99.593,59.855 C99.836,60.185 100.437,60.823 100.844,61.243 L100.878,61.244 C99.171,60.829 97.674,60.495 96.396,60.228 L96.409,60.241 C97.293,59.837 98.109,59.218 98.84,58.453 C98.84,58.453 99.084,59.156 99.593,59.855" id="Fill-122" fill="#FFFFFE"></path>
            <path d="M108.225,63.213 C108.239,63.211 108.252,63.207 108.264,63.205 C108.243,63.199 108.219,63.191 108.197,63.185 L108.225,63.213" id="Fill-123" fill="#FFFFFE"></path>
            <path d="M114.107,64.981 L114.042,64.946 C112.708,63.301 112.164,61.714 112.164,61.714 C112.164,61.714 111.799,62.263 108.905,63.052 C108.894,63.055 108.888,63.057 108.888,63.057 C108.678,63.114 108.471,63.162 108.264,63.205 C108.786,63.353 109.314,63.507 109.858,63.667 C111.337,64.102 112.754,64.541 114.107,64.981" id="Fill-124" fill="#FFFFFE"></path>
            <path d="M113.897,103.612 C114.752,104.854 115.038,105.055 116.248,107.026 C116.248,107.026 117.25,105.811 118.41,104.081 C120.812,100.499 118.737,96.685 118.614,95.675 C118.614,95.675 118.648,95.575 118.616,95.88 C118.503,96.905 119.865,102.229 116.226,104.79 C116.226,104.79 116.844,104.386 113.961,100.351 C113.76,100.068 112.39,101.422 113.897,103.612" id="Fill-125" fill="#1A1919"></path>
            <path d="M121.503,234.924 C122.287,235.981 123.659,236.655 124.687,238.397 C124.687,238.397 125.589,237.315 126.596,235.747 C128.597,232.637 127.695,231.065 127.598,230.167 C127.598,230.167 127.269,228.889 127.235,229.163 C127.126,230.077 127.779,233.917 124.597,236.295 C124.597,236.295 121.321,234.741 119.501,228.704 C119.414,228.413 119.016,231.571 121.503,234.924" id="Fill-126" fill="#1A1919"></path>
            <path d="M123.141,112.471 C120.533,109.271 119.564,105.733 119.564,105.733 L119.501,105.733 C119.501,105.733 119.775,109.087 121.047,111.099 C122.553,113.477 124.233,115.03 124.233,115.03 C124.233,115.03 123.956,113.472 123.141,112.471" id="Fill-127" fill="#1A1919"></path>
            <path d="M79.927,91.711 C79.927,91.711 84.205,89.333 91.239,92.382 C93.858,93.516 94.576,95.095 94.576,95.095 L89.755,94.638 C89.755,94.638 89.437,93.6 87.57,92.717 C85.053,91.529 82.431,92.076 79.927,91.711" id="Fill-128" fill="#1A1919"></path>
            <path d="M89.238,92.505 C89.238,92.505 90.329,93.297 90.754,94.149 L93.785,94.577 C93.785,94.577 91.603,92.931 89.238,92.505" id="Fill-129" fill="#FFFFFE"></path>
            <path d="M85.661,216.389 C85.661,216.389 90.541,213.372 97.91,216.696 C100.511,217.868 101.411,219.909 101.411,219.909 L96.077,219.375 C96.077,219.375 95.789,217.547 93.03,216.815 C90.407,216.12 87.753,216.696 85.661,216.389" id="Fill-130" fill="#1A1919"></path>
            <path d="M95.151,216.768 C95.151,216.768 96.562,217.684 97.288,218.78 C97.288,218.78 98.016,219.055 98.927,219.239 C100.031,219.461 100.474,219.469 100.474,219.469 C100.474,219.469 98.517,217.409 95.151,216.768" id="Fill-131" fill="#FFFFFE"></path>
            <path d="M91.726,78.36 C92.695,78.299 94,78.756 94.878,79.64 C93.666,81.53 91.907,81.622 90.769,81.205 C91.163,81.286 91.978,80.941 92.118,80.097 C92.24,79.366 92.24,78.787 91.726,78.36" id="Fill-132" fill="#FFFFFE"></path>
        </g>
    </g>
</svg>