<svg width="56" height="62" viewBox="0 0 56 62" fill="none" xmlns="http://www.w3.org/2000/svg">
<g clip-path="url(#clip0)">
<path d="M4.90137 36.2622C4.6928 32.6151 7.1956 31.7815 9.38554 31.7815C11.7841 31.7815 19.2924 33.3445 22.2124 33.3445C24.1937 33.3445 25.3409 33.1361 26.1751 32.7193C26.0708 33.6571 24.9237 35.4286 21.1695 35.4286C17.8325 35.4286 13.1397 33.9697 9.59411 33.9697C7.40416 33.9697 5.83992 34.5949 5.00565 36.3664V36.2622H4.90137Z" fill="#FFE6E6"/>
<path d="M15.7468 0C16.9982 0 17.9368 0.937815 17.9368 2.08403C17.9368 2.39664 17.8325 2.70924 17.7282 3.02185H18.1453C19.3967 3.02185 20.5438 4.06387 20.5438 5.41849C20.5438 6.66891 19.501 7.71092 18.2496 7.81513C19.0839 9.27395 20.6481 10.316 22.4209 10.316C24.1938 10.316 25.8623 9.27395 26.6965 7.81513C25.4452 7.71092 24.4023 6.66891 24.4023 5.41849C24.4023 4.06387 25.4452 3.02185 26.6965 3.02185H27.1137C27.1137 2.81345 27.0094 2.50084 27.0094 2.08403C27.0094 0.937815 27.9479 0 29.0951 0C30.3465 0 31.285 0.937815 31.285 2.08403C31.285 2.39664 31.1807 2.70924 31.0764 3.02185H31.4936C32.745 3.02185 33.8921 4.06387 33.8921 5.41849C33.8921 6.66891 32.8492 7.71092 31.5979 7.81513C32.4321 9.27395 33.9964 10.316 35.7692 10.316C37.542 10.316 39.2105 9.27395 40.0448 7.81513C38.7934 7.71092 37.7506 6.66891 37.7506 5.41849C37.7506 4.06387 38.7934 3.02185 40.1491 3.02185H40.6705C40.5662 2.81345 40.4619 2.39664 40.4619 2.08403C40.4619 0.937815 41.4005 0 42.5476 0V13.0252H15.7468V0Z" fill="#FFE6E6"/>
<path d="M52.5586 23.9664C54.0186 19.6941 52.1415 15.7345 56 13.2336C55.5828 13.1294 54.3314 13.0252 53.6015 13.0252C48.283 13.0252 43.6946 16.1513 41.5046 20.7361C41.5046 17.9227 41.9218 16.7765 42.6517 15.3176H15.7467C15.6424 18.0269 14.391 20.2151 12.8268 20.3193V17.4017C11.9925 17.1933 10.8454 17.0891 9.69829 17.0891C8.34261 17.0891 6.88265 17.2975 5.73553 17.6101C2.39848 18.6521 0.104248 21.7781 0.104248 25.4252C0.104248 27.405 0.83423 29.6975 1.56421 31.3647C1.77278 30.3227 2.81561 27.1966 7.61263 27.1966C12.7225 27.1966 15.121 29.6975 17.7281 29.6975C18.6666 29.6975 19.5009 29.2807 20.1266 28.2387C21.0651 27.7176 22.0037 27.5092 23.0465 27.5092C26.2793 27.5092 28.8864 30.1143 28.8864 33.3445C28.8864 36.5748 26.2793 39.1798 23.0465 39.1798C20.1266 39.1798 11.1583 37.9294 9.69829 37.9294C6.36123 37.9294 5.42268 40.5345 5.42268 42.4101C6.36123 41.9933 8.86403 41.1597 13.3482 41.1597C14.7039 41.1597 16.2681 41.2639 18.1452 41.5765C22.108 42.2017 23.6722 44.2857 23.6722 47.0992C23.6722 50.7462 19.8137 52.9345 15.121 52.9345C12.8268 52.9345 10.1154 52.3092 7.1955 50.3294C9.28116 53.1429 11.9925 55.4353 15.2253 56.8941L13.8696 59.2908C16.9981 61.0622 20.7523 62.1042 24.6108 62.1042C28.9907 62.1042 32.9534 60.8538 36.3948 58.6656L37.3333 62C44.0074 58.7698 48.8044 52.4135 49.5344 44.7025L52.1415 46.1613C52.8715 43.9731 53.2886 41.5765 53.2886 39.1798C53.2886 35.8454 52.5586 32.7193 51.3072 29.9059C50.5773 30.1143 49.8473 30.3227 49.1173 30.3227C48.283 30.3227 47.553 30.1143 46.8231 29.8017C47.9702 29.3849 51.203 27.9261 52.5586 23.9664ZM26.8007 20.8403C26.8007 21.9866 25.8622 22.9244 24.7151 22.9244C23.5679 22.9244 22.6294 21.9866 22.6294 20.8403H20.3352C20.7523 19.5899 22.6294 18.5479 24.8193 18.5479C27.1136 18.5479 28.8864 19.4857 29.3035 20.8403H26.8007Z" fill="#FFE6E6"/>
</g>
<defs>
<clipPath id="clip0">
<rect width="56" height="62" fill="white"/>
</clipPath>
</defs>
</svg>
