<svg id="Layer_1" data-name="Layer 1" xmlns="http://www.w3.org/2000/svg" xmlns:xlink="http://www.w3.org/1999/xlink" viewBox="0 0 1080 1920"><defs><style>.cls-1,.cls-10,.cls-8,.cls-9{fill:none;}.cls-2{clip-path:url(#clip-path);}.cls-3{font-size:17.54px;fill:#ffe5e6;font-family:MyriadPro-Regular, Myriad Pro;}.cls-4{fill:#1e7a43;}.cls-5{fill:#368456;}.cls-6{fill:#066b35;}.cls-7{fill:#05602c;}.cls-8{stroke:#1e7a43;stroke-miterlimit:10;stroke-width:11px;}.cls-9{stroke:#368456;stroke-width:15px;}.cls-10,.cls-9{stroke-linecap:round;stroke-linejoin:round;}.cls-10{stroke:#066b35;stroke-width:8px;}</style><clipPath id="clip-path"><rect class="cls-1" width="1080" height="1945"/></clipPath></defs><title>tall</title><g class="cls-2"><text class="cls-3" transform="translate(333.54 415.81)">FFE5E6</text><polygon class="cls-4" points="1159.44 1741.37 -9.97 1733 -9.97 0 1159.44 0 1159.44 1741.37"/><circle class="cls-5" cx="391.24" cy="279.42" r="40.93"/><path class="cls-6" d="M-67.71,441.39l445.89,20.15a145.91,145.91,0,0,1,72.56,23.17h0a30.71,30.71,0,0,0,26,3.45h0a30.69,30.69,0,0,0,21.09-24.92h0a33,33,0,0,1,24.51-27.33l9.54-2.45A30.71,30.71,0,0,0,554.7,400h0a59.31,59.31,0,0,1,50.93-65.89h0a574.29,574.29,0,0,1,164.56,1.5l420.68,64.81v1608s-1255.66,1.46-1248.35,0S-67.71,441.39-67.71,441.39Z"/><path class="cls-7" d="M-35.55,342,363.5,490a78.17,78.17,0,0,1,49.92,60.31l6.34,37.56A78.19,78.19,0,0,0,461.9,644.8L485,656.35a39,39,0,0,1,19.59,22.58h0a39,39,0,0,0,19.59,22.58l3.07,1.54h21.92l16.5-21.35A33.43,33.43,0,0,1,587.53,669h0a33.42,33.42,0,0,0,28.86-33.11v-51.6a45.69,45.69,0,0,1,20.43-38.07h0a584.79,584.79,0,0,1,299-97l222.85-9.29,10.23,1552.4H-28.24Z"/><line class="cls-8" x1="801.31" y1="776.87" x2="801.31" y2="639.87"/><path class="cls-4" d="M852.47,491V459.21A51.11,51.11,0,0,0,823.23,413V375.16a25.58,25.58,0,0,0-51.16,0v42.1a51.07,51.07,0,0,0-21.93,41.95V491a65.55,65.55,0,0,0-14.61,41.31v58.47a65.78,65.78,0,0,0,131.56,0V532.3A65.5,65.5,0,0,0,852.47,491Z"/><line class="cls-8" x1="278.73" y1="575.02" x2="278.73" y2="773.21"/><circle class="cls-4" cx="278.73" cy="518.72" r="100.13"/><line class="cls-9" x1="1034.46" y1="570.98" x2="1034.46" y2="836.07"/><path class="cls-5" d="M1243.35,477.07c3,114-85.35,205.07-208.89,208.89-115.32,3.56-208.89-93.53-208.89-208.89s93.52-208.9,208.89-208.9S1240.37,361.74,1243.35,477.07Z"/><line class="cls-9" x1="38.27" y1="582.45" x2="38.27" y2="825.92"/><circle class="cls-5" cx="38.27" cy="500.59" r="157.87"/><circle class="cls-5" cx="153.75" cy="572.22" r="84.78"/><circle class="cls-4" cx="153.01" cy="803.91" r="43.12"/><circle class="cls-5" cx="-1.93" cy="847.76" r="43.12"/><circle class="cls-4" cx="917.41" cy="780.86" r="43.12"/><circle class="cls-5" cx="66.77" cy="814.14" r="67.97"/><circle class="cls-5" cx="970.14" cy="809.76" r="37.27"/><circle class="cls-5" cx="1066.62" cy="814.14" r="67.97"/><polygon class="cls-6" points="-57.48 856.53 527.23 703.05 549.15 703.05 1201.1 885.77 1201.1 1992.33 -50.17 1992.33 -57.48 856.53"/><rect class="cls-5" x="536.78" y="702.32" width="1.46" height="0.73"/><rect class="cls-5" x="535.43" y="713.11" width="4.16" height="7.65"/><rect class="cls-5" x="534.08" y="737.79" width="6.86" height="16.02"/><rect class="cls-5" x="531.38" y="772.54" width="12.26" height="32.78"/><rect class="cls-5" x="527.33" y="860.66" width="20.35" height="57.91"/><rect class="cls-5" x="519.19" y="1053.89" width="36.54" height="108.17"/><rect class="cls-5" x="507.92" y="1836" width="59.08" height="84"/><rect class="cls-5" x="507.92" y="1374" width="59.08" height="202"/><rect class="cls-6" x="67.05" y="720.93" width="33.73" height="118.07" rx="11.54" ry="11.54"/><path class="cls-10" d="M83.92,726.55V544.62a37.34,37.34,0,0,1,37.34-37.34h59.47"/><line class="cls-10" x1="182.31" y1="487.61" x2="182.31" y2="526.96"/><path class="cls-10" d="M83.92,636.59h0a28.1,28.1,0,0,1-28.11-28.11h0"/><path class="cls-10" d="M83.92,636.59h0A28.11,28.11,0,0,0,112,608.48h0"/><line class="cls-10" x1="36.13" y1="606.61" x2="137.33" y2="606.61"/><circle class="cls-6" cx="30.51" cy="606.61" r="11.24"/><circle class="cls-6" cx="145.76" cy="606.61" r="11.24"/><path class="cls-4" d="M202,543.83a19.68,19.68,0,1,1-39.35,0"/><path class="cls-6" d="M162.63,543.83a19.68,19.68,0,1,1,39.35,0"/><rect class="cls-6" x="958.05" y="720.93" width="33.73" height="118.07" rx="11.54" ry="11.54" transform="translate(1949.84 1559.92) rotate(-180)"/><path class="cls-10" d="M974.92,726.55V544.62a37.34,37.34,0,0,0-37.34-37.34H878.11"/><line class="cls-10" x1="876.53" y1="487.61" x2="876.53" y2="526.96"/><path class="cls-10" d="M974.92,636.59h0A28.11,28.11,0,0,0,1003,608.48h0"/><path class="cls-10" d="M974.92,636.59h0a28.1,28.1,0,0,1-28.11-28.11h0"/><line class="cls-10" x1="1022.71" y1="606.61" x2="921.51" y2="606.61"/><circle class="cls-6" cx="1028.33" cy="606.61" r="11.24"/><circle class="cls-6" cx="913.08" cy="606.61" r="11.24"/><path class="cls-4" d="M856.85,543.83a19.68,19.68,0,0,0,39.36,0"/><path class="cls-6" d="M896.21,543.83a19.68,19.68,0,0,0-39.36,0"/></g></svg>