<svg xmlns="http://www.w3.org/2000/svg" xmlns:xlink="http://www.w3.org/1999/xlink" viewBox="0 0 800 500"><defs><style>.cls-1,.cls-10,.cls-8,.cls-9{fill:none;}.cls-2{clip-path:url(#clip-path);}.cls-3{font-size:12.99px;fill:#ffe5e6;font-family:MyriadPro-Regular, Myriad Pro;}.cls-4{fill:#1e7a43;}.cls-5{fill:#368456;}.cls-6{fill:#066b35;}.cls-7{fill:#05602c;}.cls-8{stroke:#1e7a43;stroke-miterlimit:10;stroke-width:11px;}.cls-9{stroke:#368456;stroke-width:15px;}.cls-10,.cls-9{stroke-linecap:round;stroke-linejoin:round;}.cls-10{stroke:#066b35;stroke-width:8px;}</style><clipPath id="clip-path"><rect class="cls-1" width="800" height="499"/></clipPath></defs><title>Artboard 1</title><g id="Layer_4" data-name="Layer 4"><g class="cls-2"><text class="cls-3" transform="translate(247.07 81.14)">FFE5E6</text><rect class="cls-4" x="-7.39" y="-0.07" width="866.23" height="546.81"/><circle class="cls-5" cx="283.88" cy="49.73" r="30.32"/><path class="cls-6" d="M-50.16,100.08,280.14,115a108.06,108.06,0,0,1,53.74,17.16h0a22.75,22.75,0,0,0,19.23,2.56h0a22.77,22.77,0,0,0,15.63-18.46h0A24.46,24.46,0,0,1,386.89,96L394,94.21a22.76,22.76,0,0,0,16.94-24.76h0a43.94,43.94,0,0,1,37.72-48.81h0a425.56,425.56,0,0,1,121.9,1.12l311.61,48V552.69s-930.11,1.08-924.7,0S-50.16,100.08-50.16,100.08Z"/><path class="cls-7" d="M-26.34,26.45l295.6,109.63a57.94,57.94,0,0,1,37,44.68l4.69,27.82a57.92,57.92,0,0,0,31.22,42.18l17.1,8.55A28.9,28.9,0,0,1,373.75,276h0a29,29,0,0,0,14.51,16.73l2.28,1.13h16.24L419,278.09a24.81,24.81,0,0,1,16.21-9.39h0a24.76,24.76,0,0,0,21.38-24.53V206a33.84,33.84,0,0,1,15.13-28.2h0a433.26,433.26,0,0,1,221.51-71.87L858.3,99l7.58,441.78H-20.92Z"/><line class="cls-8" x1="593.56" y1="348.58" x2="593.56" y2="247.1"/><path class="cls-4" d="M631.46,136.83V113.28a37.87,37.87,0,0,0-21.66-34.2V51a19,19,0,1,0-37.9,0V82.21a37.82,37.82,0,0,0-16.24,31.07v23.55a48.49,48.49,0,0,0-10.82,30.59v43.31a48.73,48.73,0,1,0,97.45,0V167.42A48.5,48.5,0,0,0,631.46,136.83Z"/><line class="cls-8" x1="206.46" y1="199.07" x2="206.46" y2="345.88"/><circle class="cls-4" cx="206.46" cy="157.36" r="74.17"/><line class="cls-9" x1="766.27" y1="196.07" x2="766.27" y2="392.44"/><path class="cls-5" d="M921,126.51c2.19,84.44-63.22,151.91-154.73,154.73C680.85,283.88,611.53,212,611.53,126.51A154.74,154.74,0,0,1,766.27-28.23C851.72-28.23,918.79,41.08,921,126.51Z"/><line class="cls-9" x1="28.35" y1="204.57" x2="28.35" y2="384.92"/><circle class="cls-5" cx="28.35" cy="143.94" r="116.94"/><circle class="cls-5" cx="113.89" cy="196.99" r="62.8"/><circle class="cls-4" cx="113.34" cy="368.62" r="31.94"/><circle class="cls-5" cx="-1.43" cy="401.1" r="31.94"/><circle class="cls-4" cx="679.56" cy="351.54" r="31.94"/><circle class="cls-5" cx="49.46" cy="376.2" r="50.35"/><circle class="cls-5" cx="718.62" cy="372.95" r="27.61"/><circle class="cls-5" cx="790.09" cy="376.2" r="50.35"/><polygon class="cls-6" points="-42.58 407.6 390.54 293.9 406.78 293.9 889.7 429.25 889.7 540.78 -37.16 540.78 -42.58 407.6"/><rect class="cls-5" x="397.61" y="293.36" width="1.08" height="0.54"/><rect class="cls-5" x="396.61" y="301.36" width="3.08" height="5.66"/><rect class="cls-5" x="395.61" y="319.64" width="5.08" height="11.87"/><rect class="cls-5" x="393.61" y="345.38" width="9.08" height="24.28"/><rect class="cls-5" x="390.62" y="383.98" width="15.08" height="42.89"/><rect class="cls-5" x="384.58" y="461.19" width="27.07" height="80.13"/><rect class="cls-6" x="49.67" y="307.15" width="24.99" height="87.46" rx="11.54" ry="11.54"/><path class="cls-10" d="M62.16,311.31V176.55a27.66,27.66,0,0,1,27.66-27.66h44.06"/><line class="cls-10" x1="135.04" y1="134.32" x2="135.04" y2="163.47"/><path class="cls-10" d="M62.16,244.68h0a20.82,20.82,0,0,1-20.82-20.82h0"/><path class="cls-10" d="M62.16,244.68h0A20.82,20.82,0,0,0,83,223.86h0"/><line class="cls-10" x1="26.76" y1="222.47" x2="101.72" y2="222.47"/><circle class="cls-6" cx="22.6" cy="222.47" r="8.33"/><circle class="cls-6" cx="107.97" cy="222.47" r="8.33"/><path class="cls-4" d="M149.62,176a14.58,14.58,0,1,1-29.15,0"/><path class="cls-6" d="M120.47,176a14.58,14.58,0,0,1,29.15,0"/><rect class="cls-6" x="709.67" y="307.15" width="24.99" height="87.46" rx="11.54" ry="11.54" transform="translate(1444.32 701.75) rotate(-180)"/><path class="cls-10" d="M722.16,311.31V176.55a27.66,27.66,0,0,0-27.66-27.66h-44"/><line class="cls-10" x1="649.28" y1="134.32" x2="649.28" y2="163.47"/><path class="cls-10" d="M722.16,244.68h0A20.83,20.83,0,0,0,743,223.86h0"/><path class="cls-10" d="M722.16,244.68h0a20.82,20.82,0,0,1-20.82-20.82h0"/><line class="cls-10" x1="757.56" y1="222.47" x2="682.6" y2="222.47"/><circle class="cls-6" cx="761.73" cy="222.47" r="8.33"/><circle class="cls-6" cx="676.35" cy="222.47" r="8.33"/><path class="cls-4" d="M634.71,176a14.58,14.58,0,1,0,29.15,0"/><path class="cls-6" d="M663.86,176a14.58,14.58,0,0,0-29.15,0"/></g></g></svg>