<svg width="14" height="17" viewBox="0 0 14 17" fill="none" xmlns="http://www.w3.org/2000/svg">
<path d="M4.83298 0.296295C4.77594 0.296326 4.71947 0.308864 4.6668 0.333189C4.61412 0.357514 4.56629 0.39315 4.52603 0.438053C4.48578 0.482955 4.45389 0.536243 4.43221 0.594862C4.41052 0.653481 4.39946 0.716279 4.39965 0.779657V2.22222H1.36632C1.30941 2.2222 1.25305 2.23465 1.20047 2.25884C1.14789 2.28303 1.10011 2.31849 1.05987 2.3632C1.01963 2.40792 0.987708 2.461 0.965937 2.51943C0.944165 2.57785 0.932967 2.64047 0.932983 2.7037V4.63151C0.933399 4.75889 0.979241 4.8809 1.06047 4.97079C1.14169 5.06069 1.25167 5.11115 1.36632 5.11111H1.79965V16.1852C1.79966 16.3129 1.84531 16.4353 1.92658 16.5256C2.00784 16.6159 2.11806 16.6667 2.23298 16.6667H11.7663C11.8812 16.6667 11.9915 16.6159 12.0727 16.5256C12.154 16.4353 12.1996 16.3129 12.1997 16.1852V5.11111H12.633C12.7476 5.11115 12.8576 5.06069 12.9388 4.97079C13.0201 4.8809 13.0659 4.75889 13.0663 4.63151V2.7037C13.0663 2.64047 13.0551 2.57785 13.0334 2.51943C13.0116 2.461 12.9797 2.40792 12.9394 2.3632C12.8992 2.31849 12.8514 2.28303 12.7988 2.25884C12.7463 2.23465 12.6899 2.2222 12.633 2.22222H9.59965V0.779657C9.59984 0.716279 9.58878 0.653481 9.56709 0.594862C9.54541 0.536243 9.51352 0.482955 9.47327 0.438053C9.43301 0.39315 9.38518 0.357514 9.33251 0.333189C9.27983 0.308864 9.22336 0.296326 9.16632 0.296295H4.83298ZM5.26632 1.26114H8.73298V2.22222H5.26632V1.26114ZM1.79965 3.18518H12.1997V4.15003H11.8103C11.7957 4.14857 11.781 4.14794 11.7663 4.14815H2.23298C2.21829 4.14794 2.20361 4.14857 2.18897 4.15003H1.79965V3.18518ZM2.66632 5.11111H11.333V15.7037H2.66632V5.11111ZM4.39965 7.03703V13.7778H5.26632V7.03703H4.39965ZM6.56632 7.03703V13.7778H7.43298V7.03703H6.56632ZM8.73298 7.03703V13.7778H9.59965V7.03703H8.73298Z" fill="white"/>
</svg>
