<?xml version="1.0" encoding="UTF-8"?>
<svg width="14px" height="14px" viewBox="0 0 14 14" version="1.1" xmlns="http://www.w3.org/2000/svg" xmlns:xlink="http://www.w3.org/1999/xlink">
    <!-- Generator: Sketch 51.3 (57544) - http://www.bohemiancoding.com/sketch -->
    <title>spinner</title>
    <desc>Created with Sketch.</desc>
    <defs></defs>
    <g id="Page-1" stroke="none" stroke-width="0" fill="none" fill-rule="evenodd">
        <g id="spinner" fill-rule="nonzero">
            <path d="M2.4,2.4 L3.2,3.2 C5.3,1.1 8.7,1.1 10.8,3.2 L11.6,2.4 C9.1,-0.1 4.9,-0.1 2.4,2.4 Z" id="Shape" fill="#333333"></path>
            <path d="M10.8,10.9 C8.7,13 5.3,13 3.2,10.9 C1.1,8.8 1.1,5.4 3.2,3.2 L2.4,2.4 C-0.1,4.9 -0.1,9.1 2.4,11.6 C4.9,14.1 9,14.1 11.6,11.6 C14.2,9.1 14.1,5 11.6,2.4 L10.8,3.2 C13,5.3 13,8.8 10.8,10.9 Z" id="Shape" fill="#000000" opacity="0.1"></path>
        </g>
    </g>
</svg>
