<svg width="31" height="33" viewBox="0 0 31 33" fill="none" xmlns="http://www.w3.org/2000/svg">
<g clip-path="url(#clip0)">
<path d="M2.71318 19.3008C2.59772 17.3596 3.9832 16.9159 5.19549 16.9159C6.52324 16.9159 10.6797 17.7478 12.296 17.7478C13.3929 17.7478 14.0279 17.6369 14.4897 17.4151C14.432 17.9142 13.797 18.8571 11.7188 18.8571C9.87147 18.8571 7.2737 18.0806 5.31095 18.0806C4.09866 18.0806 3.23273 18.4134 2.77091 19.3562V19.3008H2.71318Z" fill="#FFE6E6"/>
<path d="M8.71692 0C9.40966 0 9.92921 0.49916 9.92921 1.10924C9.92921 1.27563 9.87148 1.44202 9.81375 1.6084H10.0447C10.7374 1.6084 11.3724 2.16303 11.3724 2.88403C11.3724 3.54958 10.7951 4.1042 10.1024 4.15966C10.5642 4.93613 11.4301 5.49076 12.4115 5.49076C13.3929 5.49076 14.3165 4.93613 14.7784 4.15966C14.0856 4.1042 13.5084 3.54958 13.5084 2.88403C13.5084 2.16303 14.0856 1.6084 14.7784 1.6084H15.0093C15.0093 1.49748 14.9516 1.33109 14.9516 1.10924C14.9516 0.49916 15.4711 0 16.1061 0C16.7989 0 17.3184 0.49916 17.3184 1.10924C17.3184 1.27563 17.2607 1.44202 17.203 1.6084H17.4339C18.1266 1.6084 18.7616 2.16303 18.7616 2.88403C18.7616 3.54958 18.1843 4.1042 17.4916 4.15966C17.9534 4.93613 18.8193 5.49076 19.8007 5.49076C20.7821 5.49076 21.7057 4.93613 22.1676 4.15966C21.4748 4.1042 20.8976 3.54958 20.8976 2.88403C20.8976 2.16303 21.4748 1.6084 22.2253 1.6084H22.5139C22.4562 1.49748 22.3985 1.27563 22.3985 1.10924C22.3985 0.49916 22.918 0 23.553 0V6.93277H8.71692V0Z" fill="#FFE6E6"/>
<path d="M29.095 12.7563C29.9032 10.4823 28.8641 8.37476 31 7.04366C30.7691 6.9882 30.0764 6.93274 29.6723 6.93274C26.7281 6.93274 24.1881 8.5966 22.9758 11.0369C22.9758 9.53946 23.2067 8.92938 23.6108 8.15291H8.71696C8.65923 9.59492 7.96649 10.7596 7.10057 10.8151V9.26215C6.63875 9.15123 6.00374 9.09576 5.36873 9.09576C4.61826 9.09576 3.81007 9.20669 3.17506 9.37308C1.32776 9.9277 0.0577393 11.5916 0.0577393 13.5327C0.0577393 14.5865 0.461836 15.8067 0.865933 16.6941C0.981389 16.1395 1.55867 14.4756 4.21416 14.4756C7.04284 14.4756 8.37059 15.8067 9.81379 15.8067C10.3333 15.8067 10.7952 15.5848 11.1415 15.0302C11.6611 14.7529 12.1806 14.642 12.7579 14.642C14.5475 14.642 15.9907 16.0285 15.9907 17.7479C15.9907 19.4672 14.5475 20.8537 12.7579 20.8537C11.1415 20.8537 6.17692 20.1882 5.36873 20.1882C3.52143 20.1882 3.00187 21.5748 3.00187 22.5731C3.52143 22.3512 4.9069 21.9075 7.38921 21.9075C8.13968 21.9075 9.0056 21.963 10.0447 22.1294C12.2384 22.4622 13.1043 23.5714 13.1043 25.0689C13.1043 27.0101 10.9684 28.1748 8.37059 28.1748C7.10057 28.1748 5.59964 27.842 3.98325 26.7882C5.13781 28.2857 6.63875 29.5058 8.42832 30.2823L7.67785 31.558C9.4097 32.5008 11.4879 33.0554 13.6238 33.0554C16.0484 33.0554 18.2421 32.3899 20.1471 31.2252L20.6667 33C24.3613 31.2806 27.0168 27.8974 27.4209 23.7932L28.8641 24.5697C29.2682 23.405 29.4991 22.1294 29.4991 20.8537C29.4991 19.079 29.095 17.4151 28.4022 15.9176C27.9982 16.0285 27.5941 16.1395 27.19 16.1395C26.7281 16.1395 26.324 16.0285 25.9199 15.8622C26.555 15.6403 28.3445 14.8638 29.095 12.7563ZM14.8361 11.0924C14.8361 11.7025 14.3166 12.2016 13.6816 12.2016C13.0466 12.2016 12.527 11.7025 12.527 11.0924H11.257C11.4879 10.4269 12.527 9.87223 13.7393 9.87223C15.0093 9.87223 15.9907 10.3714 16.2216 11.0924H14.8361Z" fill="#FFE6E6"/>
</g>
<defs>
<clipPath id="clip0">
<rect width="31" height="33" fill="white"/>
</clipPath>
</defs>
</svg>

