<svg width="40" height="48" viewBox="0 0 40 48" fill="none" xmlns="http://www.w3.org/2000/svg">
<circle opacity="0.1" r="20" transform="matrix(1 0 0 -1 20 20)" fill="#066B35"/>
<path fill-rule="evenodd" clip-rule="evenodd" d="M20 11.2075C15.4432 11.2075 11.75 14.8311 11.75 19.3019C11.75 23.7726 15.4432 27.3962 20 27.3962C24.5568 27.3962 28.25 23.7726 28.25 19.3019C28.25 14.8311 24.5568 11.2075 20 11.2075Z" fill="#066B35"/>
<path fill-rule="evenodd" clip-rule="evenodd" d="M17 14C15.8953 14 15 14.8953 15 16C15 17.1047 15.8953 18 17 18C18.1047 18 19 17.1047 19 16C19 14.8953 18.1047 14 17 14Z" fill="#FFE6E6"/>
<path fill-rule="evenodd" clip-rule="evenodd" d="M17.9622 42.2301L19.9999 48L22.0376 42.2301V29.1724C21.3733 29.2781 20.6968 29.3455 19.9999 29.3455C19.303 29.3455 18.6265 29.2781 17.9622 29.1724L17.9622 42.2301Z" fill="#066B35"/>
</svg>
